<svg xmlns="http://www.w3.org/2000/svg" xmlns:xlink="http://www.w3.org/1999/xlink" viewBox="0 0 648 652"><style><![CDATA[.B{fill:#1f1f21}.C{fill:#2b2b2d}.D{fill:#231f20}]]></style><g opacity=".6"><g class="D"><path d="M150.87 419.97l-.13-3.7 3.7-.14.13 3.7-3.7.13zm-.1 39.65l.06-3.7h3.7l-.06 3.72zm0-19.87l.06-3.7h3.7l-.06 3.72zm.03 39.75v-3.7h3.7v3.7h-3.7zm-19.34-59.6v-3.7h3.7v3.7h-3.7zm.04 39.78l-.06-3.7 3.7-.1.06 3.72zm-.06-19.93l.06-3.7h3.7l-.06 3.72zm.08 39.82l-.13-3.7 3.7-.14.13 3.7-3.7.12zM112.1 419.9v-3.7h3.7v3.7h-3.7zm.04 39.78l-.06-3.7 3.7-.1.07 3.72zm-.06-19.93l.06-3.7h3.7l-.06 3.72zm.1 39.82l-.12-3.7 3.7-.14.13 3.7-3.7.12zm-19.4-59.67v-3.7h3.7v3.7h-3.7zm-.03 39.72l.06-3.7h3.7l-.06 3.72zm0-19.87l.06-3.7h3.7l-.06 3.72z"/><use xlink:href="#B"/></g><g class="B"><use xlink:href="#C"/><path d="M627.36,140.82,627.6,126l14.78.22-.24,14.8Zm.24-19.63-.24-14.78,14.78-.26.24,14.8Z"/><use xlink:href="#D"/><use xlink:href="#C" x="-19.35"/><path d="M608.25 141.06l-.25-14.78 14.77-.25.24 14.8zm0-19.87l-.25-14.8 14.77-.25L623 121zm-.12 39.6V146h14.78v14.8h-14.78z"/><use xlink:href="#C" x="-38.7"/><path d="M588.9 141.06l-.23-14.78 14.78-.25.23 14.8zm0-19.87l-.23-14.78 14.78-.26.23 14.8zm-.1 39.6v-14.78l14.78-.01v14.8H588.8z"/><use xlink:href="#C" x="-58.04"/><path d="M569.32,140.82l.24-14.78,14.78.23-.24,14.79Zm.23-19.63-.23-14.78,14.78-.26.23,14.8Z"/><use xlink:href="#D" x="-58.04"/></g><g class="D"><path d="M633.02 419.9v-3.7h3.7v3.7h-3.7zm.03 39.78L633 456l3.7-.08.06 3.72zm0-19.87l-.06-3.7 3.7-.08.06 3.72z"/><use xlink:href="#E"/><path d="M613.68 419.9v-3.7h3.7v3.7h-3.7z"/><use xlink:href="#F"/><use xlink:href="#G"/><use xlink:href="#G" x="-19.35" y="-59.61"/><path d="M594.27 459.6l.12-3.7 3.7.1-.12 3.7zm.1-19.78l-.06-3.7 3.7-.1v3.7z"/><use xlink:href="#G" x="-19.35"/><use xlink:href="#E" x="-58.04" y="-59.6"/><path d="M575 459.62l.06-3.7h3.7l-.06 3.7zm.06-19.8l-.06-3.7 3.7-.07.06 3.7z"/><use xlink:href="#B" x="482.22"/><path d="M632.96 500.9l.13-3.7 3.7.12-.13 3.7-3.7-.12zm.04 39.78l.07-3.7h3.7l-.06 3.7zm.06-19.8v-3.7l3.7-.08.06 3.7z"/><use xlink:href="#B" x="540.26" y="81.07"/><path d="M613.62 500.9l.12-3.7 3.7.12-.12 3.7-3.7-.12zm.03 39.78l.06-3.7h3.7l-.06 3.7zm.06-19.8l-.06-3.7 3.7-.08.06 3.7z"/><use xlink:href="#B" x="520.92" y="81.08"/><use xlink:href="#B" x="501.57" y="21.47"/><path d="M594.3 540.68l.06-3.7h3.7l-.06 3.7zm.06-19.8l-.06-3.7 3.7-.08.06 3.7z"/><use xlink:href="#B" x="501.57" y="81.08"/><path d="M575 500.97v-3.7l3.7-.01v3.7H575zm0 39.7V537h3.7l-.06 3.7zm.06-19.8v-3.7l3.7-.08.06 3.7zm-.14 39.62l.13-3.7 3.7.1-.13 3.7-3.7-.13z"/></g><g class="B"><path d="M311.54 14.6v-3.7h3.7v3.7h-3.7z"/><use xlink:href="#H"/><path d="M311.54 74.2v-3.7h3.7v3.7h-3.7zm-19.28-59.54l-.13-3.7 3.7-.13.13 3.7-3.7.13z"/><use xlink:href="#I"/><path d="M292.2 74.2v-3.7h3.7v3.7h-3.7zm-19.3-59.54l-.12-3.7 3.7-.13.13 3.7-3.7.13z"/><use xlink:href="#I" x="-19.35"/><path d="M272.85 74.2v-3.7h3.7v3.7h-3.7zM253.5 14.6v-3.7h3.7v3.7h-3.7z"/><use xlink:href="#I" x="-38.7"/><path d="M253.5 74.2v-3.7h3.7v3.7h-3.7z"/></g><g class="C"><path d="M391.9 14.6v-3.7h3.7v3.7h-3.7z"/><use xlink:href="#H" x="80.36"/><path d="M391.9 74.2v-3.7h3.7v3.7h-3.7zm-19.27-59.54l-.13-3.7 3.7-.13.12 3.7-3.7.13z"/><use xlink:href="#I" x="80.37"/><path d="M372.57 74.2v-3.7h3.7v3.7h-3.7zm-19.3-59.54l-.12-3.7 3.7-.13.13 3.7-3.7.13z"/><use xlink:href="#I" x="61.02"/><path d="M353.22 74.2v-3.7h3.7v3.7h-3.7zm-19.35-59.6v-3.7h3.7v3.7h-3.7z"/><use xlink:href="#I" x="41.67"/><path d="M333.87 74.2v-3.7h3.7v3.7h-3.7z"/></g><g class="B"><path d="M306.26 101.45l-.5-14.77 14.77-.52.5 14.78-14.77.5zm-.26 39.5v-14.78h14.78v14.8zm0-19.87V106.3h14.78v14.8zm-.25 39.47l.5-14.77 14.77.5-.5 14.78-14.77-.5z"/><use xlink:href="#C" x="-340.83"/><path d="M286.54 140.83l.23-14.78 14.78.2-.24 14.8zm.1-19.76V106.3h14.78v14.8z"/><use xlink:href="#D" x="-340.83"/><path d="M267.05 100.94l.5-14.77 14.78.5-.5 14.78-14.78-.5zm.37 40.12l-.23-14.78L282 126l.23 14.8zm-.12-20V106.3h14.8v14.8zm.26 40l-.5-14.77 14.77-.52.5 14.78-14.78.5zm-19.86-60.1l.5-14.77 14.77.5-.5 14.78-14.77-.5zm.3 40v-14.78h14.78v14.8zm0-19.87V106.3h14.78v14.8z"/><use xlink:href="#D" x="-379.52"/><path d="M391.98 95.72l-.13-3.7 3.7-.14.13 3.7-3.7.13z"/><use xlink:href="#I" x="99.7" y="81.06"/><use xlink:href="#E" x="-241.11" y="-324.24"/><use xlink:href="#B" x="279.81" y="-383.84"/><path d="M372.6 135.43l-.06-3.7 3.7-.07.06 3.7zm0-19.9v-3.7h3.7v3.72z"/><use xlink:href="#B" x="279.81" y="-324.24"/><use xlink:href="#E" x="-279.81" y="-383.84"/><path d="M353.2 135.37l.06-3.7h3.7l-.06 3.72zm0-19.84v-3.7h3.7v3.72zm.08 39.8l-.13-3.7 3.7-.14.13 3.7-3.7.12z"/><use xlink:href="#E" x="-299.16" y="-383.84"/><use xlink:href="#I" x="41.67" y="81.06"/><path d="M333.87 155.26v-3.7h3.7v3.7h-3.7z"/></g><g class="C"><use xlink:href="#B" x="459.89" y="-383.84"/><path d="M552.68,135.43l-.06-3.7,3.7-.08.06,3.72Zm0-19.87-.06-3.7,3.7-.08.06,3.72Z"/><use xlink:href="#B" x="459.89" y="-324.24"/><use xlink:href="#B" x="440.54" y="-383.84"/><path d="M533.33 135.43l-.05-3.7 3.7-.07.06 3.7zm0-19.87l-.06-3.7 3.7-.08.06 3.72z"/><use xlink:href="#B" x="440.54" y="-324.24"/><use xlink:href="#B" x="421.2" y="-383.84"/><path d="M514 135.43l-.06-3.7 3.7-.08.06 3.7zm0-19.9v-3.7h3.7v3.72z"/><use xlink:href="#B" x="421.2" y="-324.24"/><use xlink:href="#B" x="401.84" y="-383.84"/><use xlink:href="#I" x="202.4" y="81.06"/><use xlink:href="#B" x="401.84" y="-324.24"/></g><g fill="#3a3b41"><path d="M231.24 95.72l-.13-3.7 3.7-.14.13 3.7-3.7.13z"/><use xlink:href="#I" x="-61.03" y="81.06"/><use xlink:href="#E" x="-401.86" y="-324.24"/><use xlink:href="#B" x="119.06" y="-383.84"/><path d="M211.85 135.43v-3.7l3.7-.07.06 3.7zm0-19.9v-3.7h3.7v3.72zm-.03 39.73v-3.7h3.7v3.7h-3.7z"/><use xlink:href="#E" x="-440.56" y="-383.84"/><use xlink:href="#I" x="-99.72" y="81.06"/><path d="M192.54 155.32l-.12-3.7 3.7-.14.13 3.7-3.7.12z"/><use xlink:href="#B" x="80.37" y="-383.84"/><path d="M173.1 135.37l.06-3.7h3.7v3.72zm0-19.84v-3.7h3.7v3.72z"/><use xlink:href="#B" x="80.37" y="-324.24"/></g><g class="C"><path d="M231.1 14.53l.13-3.7 3.7.1-.13 3.7-3.7-.13z"/><use xlink:href="#H" x="-80.37"/><path d="M231.17 74.2v-3.7h3.7v3.7h-3.7zm-19.35-59.6v-3.7h3.7v3.7h-3.7zm.03 39.77v-3.7l3.7-.08.06 3.72zm0-19.9v-3.7h3.7v3.72zm-.03 39.73v-3.7h3.7v3.7h-3.7zm-19.28-59.54l-.13-3.7 3.7-.13.13 3.7-3.7.13zm-.1 39.64l.06-3.7h3.7l-.06 3.72zm0-19.84v-3.7h3.7v3.72z"/><use xlink:href="#G" x="-421.2" y="-405.32"/><path d="M173.13 14.6v-3.7h3.7v3.7h-3.7z"/><use xlink:href="#I" x="-119.07"/><path d="M173.13 74.2v-3.7h3.7v3.7h-3.7z"/></g><g class="B"><use xlink:href="#B" x="459.89" y="-302.78"/><path d="M552.62 216.43l.06-3.7 3.7.05-.06 3.7zm.06-19.8l-.06-3.7 3.7-.08.06 3.72z"/><use xlink:href="#B" x="459.89" y="-243.18"/><use xlink:href="#B" x="440.54" y="-302.78"/><path d="M533.34 216.5l-.06-3.7 3.7-.08.06 3.7zm0-19.87l-.06-3.7 3.7-.07.06 3.7z"/><use xlink:href="#B" x="440.54" y="-243.18"/><use xlink:href="#B" x="421.2" y="-302.78"/><path d="M514 216.5l-.06-3.7 3.7-.08v3.7zm0-19.87l-.06-3.7 3.7-.08.06 3.7zm-.04 39.7v-3.7l3.7-.01-.01 3.7h-3.7z"/><use xlink:href="#B" x="401.84" y="-302.78"/><use xlink:href="#F" x="-119.06" y="-243.18"/><use xlink:href="#E" x="-138.41" y="-243.18"/></g><g class="D"><path d="M311.6 257.85l-.13-3.7 3.7-.14.13 3.7-3.7.13zm-.06 39.67v-3.7h3.7v3.7zm0-19.87V274h3.7v3.7zm-.06 39.67l.13-3.7 3.7.1-.13 3.7-3.7-.12z"/><use xlink:href="#B" x="199.44" y="-221.72"/><path d="M292.17 297.5l.06-3.7h3.7l-.06 3.7zm0-19.85V274h3.7v3.7z"/><use xlink:href="#B" x="199.44" y="-162.1"/><use xlink:href="#G" x="-340.82" y="-221.73"/><path d="M272.88 297.55l-.06-3.7 3.7-.08.06 3.72zm0-19.9V274h3.7v3.7zm.02 39.8l-.12-3.7 3.7-.14.13 3.7-3.7.13z"/><use xlink:href="#E" x="-379.52" y="-221.72"/><path d="M253.5 297.53v-3.7h3.7v3.72zm0-19.88V274h3.7v3.7z"/><use xlink:href="#B" x="160.74" y="-162.1"/></g><g class="C"><use xlink:href="#B" x="299.14" y="-221.72"/><use xlink:href="#F" x="-221.76" y="-162.13"/><path d="M391.85 317.32l.13-3.7 3.7.1-.13 3.7-3.7-.13z"/><use xlink:href="#B" x="279.81" y="-221.72"/><path d="M372.6 297.55l-.06-3.7 3.7-.08.06 3.72zm0-19.87l-.06-3.7 3.7-.08.06 3.7zm-.1 39.64l.13-3.7 3.7.12-.12 3.7-3.7-.13z"/><use xlink:href="#G" x="-260.46" y="-221.73"/><path d="M353.25 297.55l-.06-3.7 3.7-.08.06 3.72zm0-19.9V274h3.7v3.7z"/><use xlink:href="#B" x="260.46" y="-162.1"/><path d="M333.8 257.72l.13-3.7 3.7.12-.13 3.7-3.7-.12zm.07 39.8v-3.7h3.7v3.7zm0-19.87V274h3.7v3.7z"/><use xlink:href="#B" x="241.11" y="-162.12"/></g><g class="B"><path d="M391.85 338.78l.13-3.7 3.7.1-.13 3.7-3.7-.13zm.1 39.84l-.06-3.7 3.7-.08.06 3.72zm0-19.88l-.06-3.7 3.7-.08.06 3.72z"/><use xlink:href="#B" x="299.14" y="-81.05"/><path d="M372.5 338.78l.13-3.7 3.7.1-.13 3.7-3.7-.13zm.04 39.78l.06-3.7h3.7l-.06 3.72zm.06-19.82l-.06-3.7 3.7-.08.06 3.72zm-.03 39.7v-3.7h3.7v3.7h-3.7z"/><use xlink:href="#B" x="260.46" y="-140.66"/><path d="M353.25 378.62l-.06-3.7 3.7-.08.05 3.72zm0-19.87l-.06-3.7 3.7-.08.05 3.72zm-.03 39.7v-3.7l3.7-.01-.01 3.7h-3.7zm-19.35-59.6l.01-3.7 3.7-.01v3.7h-3.7z"/><use xlink:href="#J"/><path d="M333.87 398.45v-3.7h3.7v3.7h-3.7zm138.35-59.67l.13-3.7 3.7.1-.13 3.7-3.7-.13zm.08 39.82l-.06-3.7 3.7-.08.06 3.72zm0-19.87l-.06-3.7L476 355l.06 3.72z"/><use xlink:href="#B" x="379.52" y="-81.06"/><path d="M452.88 338.78l.12-3.7 3.7.12-.12 3.7-3.7-.13zm.02 39.78l.06-3.7h3.7l-.06 3.72zm.06-19.82l-.06-3.7 3.7-.08.06 3.72z"/><use xlink:href="#B" x="360.18" y="-81.05"/><path d="M433.6 338.84v-3.7l3.7-.01v3.7h-3.7zm0 39.76v-3.7h3.7v3.72zm0-19.84l-.06-3.7 3.7-.08.05 3.72zm0 39.7v-3.7h3.7v3.7h-3.7z"/><use xlink:href="#B" x="321.48" y="-140.66"/><use xlink:href="#J" x="80.36"/><use xlink:href="#E" x="-218.78" y="-81.06"/></g><g class="D"><use xlink:href="#B" x="299.16" y="21.47"/><path d="M392 540.77l-.12-3.7 3.7-.14.12 3.7zm-.07-19.93v-3.7h3.7v3.7z"/><use xlink:href="#B" x="299.14" y="81.07"/><use xlink:href="#B" x="279.81" y="21.47"/><use xlink:href="#K"/><use xlink:href="#B" x="279.81" y="81.07"/><path d="M353.22 500.97v-3.7h3.7v3.7h-3.7zm-.06 39.68l.12-3.7 3.7.1-.12 3.7zm.06-19.8v-3.7h3.7v3.7z"/><use xlink:href="#B" x="260.46" y="81.07"/><use xlink:href="#B" x="241.12" y="21.47"/><path d="M333.94 540.77l-.12-3.7 3.7-.14.12 3.7zm-.07-19.93v-3.7h3.7v3.7z"/><use xlink:href="#B" x="241.12" y="81.07"/></g><path d="M146.92 18.1l.38-11.07 11.08.37-.38 11.1-11.08-.4zm.18 39.9V46.94h11.08V58zm0-19.87V27.07h11.08v11.1zm0 39.77V66.8h11.1v11.1h-11.1zm-19.34-59.6V7.2h11.08v11.1h-11.08zm0 39.7V47h11.08v11zm0-19.87V27.08h11.08v11.08zm0 39.77V66.8h11.08v11.1h-11.08zM108.6 18.48l-.4-11.08 11.1-.4.38 11.1-11.07.4zM108.4 58V47h11.1v11zm0-19.87V27.07h11.1v11.1zm-.18 39.57l.4-11.08 11.08.37-.4 11.1-11.08-.38zM89.06 18.3V7.2h11.1v11.1h-11.1zm0 39.7V47h11.1v11zm0-19.87V27.07h11.1v11.1zm0 39.77V66.8h11.1v11.1h-11.1z" class="B"/><g class="C"><use xlink:href="#L"/><path d="M147.1 139.1V128h11.08v11.1zm0-19.87v-11.08h11.08v11.1zm0 39.72v-11.08l11.08-.01v11.1H147.1zm-19.34-59.6V88.27l11.08-.01v11.1h-11.08zm-.1 39.65l.18-11.1 11.08.16-.17 11.1zm.1-19.8v-11.07h11.08v11.1zm-.01 39.76v-11.1l11.08-.01v11.1h-11.08zm-19.54-59.8l.4-11.08 11.07.37-.38 11.1-11.08-.38zm.28 40.02l-.18-11.08 11.1-.2.17 11.1zm-.1-20v-11.04h11.1v11.1zm.2 39.96l-.4-11.08 11.08-.4.4 11.1-11.08.38zm-19.54-59.8V88.27l11.1-.01v11.1h-11.1zm.01 39.75V128h11.08v11.1zm0-19.87v-11.08h11.1v11.1zm0 39.73v-11.1l11.08-.01v11.1H89.07z"/></g><g class="B"><path d="M66.93 261.67l-.38-11.08 11.08-.4.38 11.1-11.08.4zm-.28 39.46l.17-11.08 11.1.15-.18 11.1zm0-19.87l.17-11.08 11.1.15-.18 11.1zm.08 39.82V310h11.1v11.1h-11.1zm-19.33-59.6v-11.1l11.1-.01v11.1H47.4zm.08 39.82l-.18-11.08 11.1-.23.18 11.1zm-.18-20.05l.18-11.08 11.08.15-.17 11.1zm.3 40.02l-.4-11.08 11.08-.4.38 11.1-11.07.38zm-19.56-59.8v-11.1l11.1-.01v11.1h-11.1zM28 301.13l.17-11.08 11.1.15-.26 11.1zm0-19.87l.17-11.08 11.1.15-.26 11.1z"/><use xlink:href="#L" x="-119.06" y="221.73"/><path d="M8.9 261.66l-.4-11.06 11.08-.4.38 11.1-11.08.38zm-.3 39.47l.17-11.08 11.1.15-.18 11.1zm0-19.87l.17-11.08 11.1.15-.18 11.1zm.1 39.82V310h11.1v11.1H8.7zM468.58 18.3V7.2h11.1v11.1h-11.1zm.02 39.7V46.94h11.08V58zm0-19.87V27.07h11.08v11.1zm0 39.77V66.8h11.08v11.1H468.6zm-19.16-59.42l-.4-11.08 11.08-.4.38 11.08-11.07.4zm-.2 39.52V47h11.1v11zm0-19.87V27.07h11.1v11.1zm0 39.77V66.8h11.1v11.1h-11.1zM430.1 18.48l-.4-11.08 11.08-.4.4 11.08-11.08.4zM429.9 58V47H441v11zm0-19.87V27.08H441v11.1zm0 39.77V66.8H441v11.1h-11.1zm-19.35-59.6V7.2h11.08v11.1h-11.08zm0 39.7V47h11.08v11zm0-19.87V27.08h11.08v11.08zm.2 39.95L410.36 67l11.08-.4.38 11.1-11.08.38z"/></g><g class="C"><path d="M388.03 180.22l.38-11.08 11.08.37-.38 11.1-11.08-.38zm.2 39.94v-11.1h11.08v11.1zm0-19.88V189.2h11.08v11.1z"/><use xlink:href="#L" x="241.1" y="140.66"/><path d="M368.87 180.4v-11.08l11.1-.01v11.1h-11.1zm0 39.76v-11.1h11.1v11.1zm0-19.87v-11.1h11.1v11.1zm0 39.73v-11.1l11.1-.01V240h-11.1z"/><use xlink:href="#L" x="202.42" y="81.06"/><path d="M349.52 220.16v-11.1h11.1v11.1zm0-19.87v-11.1h11.1v11.1zm0 39.73v-11.1l11.1-.01V240h-11.1z"/><use xlink:href="#L" x="183.07" y="81.06"/><path d="M330.18 220.16v-11.1h11.08v11.1zm0-19.87v-11.1h11.08v11.1zm-.18 39.53l.38-11.07 11.08.37-.38 11.1-11.08-.4z"/></g><g class="B"><path d="M227.3 180.22l.38-11.08 11.08.37-.38 11.1-11.08-.38zm.18 39.94v-11.1h11.08v11.1zm0-19.88V189.2h11.08v11.1zm0 39.72v-11.08l11.08-.01V240h-11.08zm-19.35-59.6v-11.08l11.1-.01v11.1h-11.1zm.1 39.85l-.22-11.1 11.1-.2.17 11.1zm-.1-20V189.2h11.1v11.1zm.01 39.77v-11.1l11.1-.01V240h-11.1zm-19.15-59.42l-.38-11.08 11.07-.4.4 11.1-11.08.38zm-.28 39.47l.17-11.08 11.1.15-.18 11.1zm.08-19.78v-11.1h11.1v11.1zm-.18 39.53l.38-11.07 11.08.37-.38 11.1-11.08-.4zm-19.16-59.42v-11.08l11.08-.01v11.1h-11.08zm0 39.76v-11.1h11.08v11.1zm0-19.87v-11.1h11.08v11.1zm.2 39.9l-.38-11.08 11.08-.4.38 11.08-11.08.4zm138.03 102.15l.38-11.08 11.08.37-.38 11.1-11.08-.38zm.2 39.93V371.2h11.08v11.1zm.1-19.78l-.18-11.1 11.1-.2.17 11.1zm-.1 39.64v-11.08l11.08-.01v11.1h-11.08zm-19.55-59.8l.38-11.08 11.08.37-.38 11.1-11.08-.38zm.03 39.75l.35-11.08 11.1.34-.36 11.1zm.17-19.7v-11.08h11.1v11.1zm0 39.74v-11.08l11.1-.01v11.1h-11.1z"/><use xlink:href="#L" x="122.05" y="243.19"/><path d="M269 382.1l.36-11.08 11.08.34-.36 11.1zm.1-19.78l.17-11.08 11.1.15-.18 11.1zm.06 39.82v-11.08l11.08-.01v11.1h-11.08z"/><use xlink:href="#L" x="102.7" y="243.19"/><path d="M249.72 382.2l.18-11.1 11.08.16-.18 11.1zm0-19.88l.18-11.08 11.08.15-.18 11.1zm.08 39.83v-11.1l11.08-.01v11.1H249.8z"/></g><g class="D"><use xlink:href="#E" x="-80.36" y="21.46"/><path d="M552.62 540.68l.07-3.7h3.7l-.06 3.7zm.06-19.8v-3.7l3.7-.08.06 3.72zm-.03 39.7l.01-3.7 3.7-.01v3.7h-3.7z"/><use xlink:href="#G" x="-80.37" y="21.45"/><path d="M533.34 540.74l-.06-3.7L537 537l.06 3.7zm0-19.87l-.06-3.7 3.7-.08.06 3.7z"/><use xlink:href="#B" x="440.54" y="81.08"/><use xlink:href="#B" x="421.2" y="21.47"/><use xlink:href="#F" x="-99.7" y="81.06"/><use xlink:href="#B" x="421.2" y="81.08"/><use xlink:href="#B" x="401.86" y="21.47"/><path d="M494.6 540.7V537h3.7v3.7zm0-19.84l-.05-3.7 3.7-.08.06 3.7z"/><use xlink:href="#B" x="401.84" y="81.07"/></g><g class="B"><use xlink:href="#B" x="218.79" y="102.53"/><path d="M311.48 621.7l.12-3.7 3.7.1-.12 3.7zm.06-19.8v-3.7h3.7v3.7z"/><use xlink:href="#B" x="218.78" y="162.13"/><use xlink:href="#B" x="199.44" y="102.53"/><path d="M292.2 621.77v-3.7h3.7v3.7zm0-19.87v-3.7h3.7v3.7z"/><use xlink:href="#B" x="199.44" y="162.13"/><use xlink:href="#B" x="180.09" y="102.53"/><use xlink:href="#H" x="-38.69" y="567.44"/><use xlink:href="#B" x="180.09" y="162.13"/><use xlink:href="#B" x="160.74" y="102.53"/><path d="M253.45 621.7l.12-3.7 3.7.1-.12 3.7zm.05-19.8v-3.7h3.7v3.7z"/><use xlink:href="#B" x="160.74" y="162.14"/></g><g class="C"><path d="M68.58 340.7l.01-7.4H76v7.4h-7.4zm.07 39.8l-.12-7.4 7.38-.14.13 7.4zm-.12-20l.1-7.4 7.4.1-.1 7.4zm.05 39.8v-7.4h7.4v7.4h-7.4zm-19.2-59.48l-.26-7.4 7.4-.26.26 7.4-7.4.26zm-.2 39.56l.12-7.38 7.4.1-.12 7.4zm0-19.88l.12-7.38 7.4.1-.12 7.4zm.06 39.8v-7.4h7.4v7.4h-7.4zm-19.22-59.48l-.25-7.4 7.38-.26.26 7.4-7.4.26zm-.2 39.56L30 373l7.4.1-.12 7.4zm0-19.88l.12-7.38 7.4.1-.12 7.4zm.07 39.8v-7.4h7.4v7.4h-7.4zm-19.36-59.6v-7.4h7.4l-.01 7.4h-7.4zm.06 39.8l-.13-7.4 7.4-.14.13 7.4zm-.12-20l.1-7.38 7.4.1-.1 7.4zm.2 39.92l-.25-7.38 7.38-.27.26 7.4-7.4.25z"/><use xlink:href="#M"/><path d="M631.1 299.3l.12-7.4 7.4.1-.12 7.4zm.12-19.75l-.1-7.4 7.4-.14.1 7.4zm-.05 39.68v-7.4l7.4-.01.01 7.4h-7.4z"/><use xlink:href="#M" x="-19.34"/><path d="M611.9 299.43l-.12-7.4 7.4-.13.12 7.4zm0-19.87l-.12-7.4 7.4-.14.12 7.4zm-.07 39.68v-7.4h7.4v7.4h-7.4z"/><use xlink:href="#M" x="-38.69"/><path d="M592.36 299.25l.24-7.38 7.4.2-.24 7.4zm.18-19.7l-.12-7.4 7.4-.14.12 7.4zm-.06 39.7v-7.4h7.4v7.4h-7.4z"/><use xlink:href="#M" x="-58.04"/><path d="M573.07 299.3l.12-7.4 7.4.1-.12 7.4zm.12-19.75l-.1-7.4 7.38-.14.12 7.4z"/><use xlink:href="#M" x="-58.04" y="59.61"/></g><g class="B"><use xlink:href="#M" y="-81.06"/><path d="M631.1 218.25l.13-7.4 7.4.1-.13 7.4zm.12-19.75l-.1-7.4 7.4-.14.1 7.4zm-.04 39.67l-.01-7.4 7.4-.01v7.4h-7.4z"/><use xlink:href="#M" x="-19.34" y="-81.06"/><use xlink:href="#N"/><use xlink:href="#M" x="-19.34" y="-21.46"/><use xlink:href="#M" x="-38.69" y="-81.06"/><use xlink:href="#N" x="-19.35"/><use xlink:href="#M" x="-38.69" y="-21.46"/><use xlink:href="#M" x="-58.04" y="-81.06"/><path d="M573.07 218.25l.12-7.4 7.4.1-.12 7.4zm.12-19.75l-.1-7.4 7.4-.14.1 7.4z"/><use xlink:href="#M" x="-58.04" y="-21.46"/><use xlink:href="#M" x="0.01" y="324.25"/><path d="M631.24 623.68l-.12-7.4 7.4-.14.12 7.4zm0-19.87l-.12-7.4 7.4-.14.12 7.4zm-.2 39.54l.26-7.38 7.38.24-.25 7.4-7.4-.26z"/><use xlink:href="#M" x="-19.34" y="324.25"/><path d="M611.9 623.68l-.12-7.4 7.4-.13.12 7.4zm0-19.87l-.12-7.4 7.4-.14.12 7.4zm-.2 39.55l.25-7.4 7.4.25-.26 7.4-7.38-.25zm-19.34-59.6l.25-7.38 7.4.24-.26 7.4-7.38-.26zm.18 39.93l-.1-7.4 7.38-.13.12 7.4zm0-19.87l-.1-7.4 7.38-.14.12 7.4zm-.06 39.7v-7.4h7.4l.01 7.4h-7.4zM573 583.75l.25-7.38 7.4.24-.25 7.4-7.4-.26zm.08 39.8l.12-7.4 7.4.1-.12 7.4zm.1-19.75l-.1-7.4 7.4-.14.1 7.4zm-.04 39.7v-7.4h7.4v7.4h-7.4z"/></g><g class="C"><use xlink:href="#M" x="-80.37" y="-243.19"/><use xlink:href="#O"/><use xlink:href="#M" x="-80.37" y="-183.59"/><path d="M531.6 16.57l-.26-7.4 7.4-.26.25 7.4-7.38.26z"/><use xlink:href="#O" x="-19.34"/><use xlink:href="#M" x="-99.71" y="-183.58"/><path d="M512.24 16.57l-.26-7.4 7.4-.26.26 7.4-7.4.26z"/><use xlink:href="#O" x="-38.7"/><use xlink:href="#M" x="-119.07" y="-183.58"/><use xlink:href="#M" x="-138.41" y="-243.19"/><use xlink:href="#O" x="-58.04"/><use xlink:href="#M" x="-138.41" y="-183.58"/></g><g class="B"><path d="M309.57 178.44l.25-7.4 7.4.25-.26 7.4-7.38-.25z"/><use xlink:href="#O" x="-241.1" y="162.12"/><use xlink:href="#M" x="-321.47" y="-21.46"/><use xlink:href="#M" x="-340.82" y="-81.06"/><use xlink:href="#O" x="-260.45" y="162.12"/><use xlink:href="#M" x="-340.82" y="-21.46"/><path d="M271.13 178.7l-.25-7.38 7.38-.27.26 7.4-7.4.25z"/><use xlink:href="#O" x="-279.8" y="162.12"/><path d="M271 238.17v-7.4l7.4-.01v7.4H271z"/><use xlink:href="#M" x="-379.51" y="-81.06"/><use xlink:href="#O" x="-299.15" y="162.12"/><path d="M251.53 238.04l.25-7.38 7.4.24-.26 7.4-7.38-.26zm295.57 25.28v-14.78h14.78v14.78H547.1zm-.1 39.62l.24-14.77 14.78.22-.24 14.8zm.24-19.63l-.24-14.78 14.77-.25.24 14.8zm-.38 39.36l.5-14.78 14.77.5-.5 14.8-14.77-.5zm-19.1-59.35v-14.78h14.78v14.78h-14.78zm-.12 39.68l.25-14.78 14.77.22-.24 14.8zm.24-19.64l-.23-14.78 14.78-.25.23 14.8zm-.38 39.3l.5-14.77 14.77.5-.5 14.78-14.77-.5zm-19.33-59.6l.5-14.78 14.77.5-.5 14.78-14.77-.5z"/><path d="M508.53 303.18l-.23-14.77 14.78-.26.23 14.8zm0-19.87l-.23-14.78 14.78-.25.23 14.8zm-.36 39.36l.5-14.77 14.77.5-.5 14.78-14.77-.5zm-19.35-59.6l.5-14.78 14.77.5-.5 14.78-14.77-.5zM489 303l.24-14.78 14.78.22-.24 14.8zm.24-19.64l-.24-14.83 14.78-.25.24 14.8z"/><use xlink:href="#D" x="-138.41" y="162.13"/></g><g class="C"><path d="M309.7 421.75v-7.4h7.4v7.4h-7.4zm0 39.75v-7.4h7.4v7.4zm0-19.87v-7.4h7.4v7.42z"/><use xlink:href="#M" x="-321.47" y="221.73"/><path d="M290.35 421.75v-7.4h7.4v7.4h-7.4zm.12 39.87l-.24-7.4 7.4-.26.24 7.4zm-.12-20v-7.4h7.4v7.4z"/><use xlink:href="#M" x="-340.82" y="221.73"/><path d="M271 421.75v-7.4h7.4v7.4H271zm-.12 39.63l.24-7.4 7.4.22-.24 7.4zm.12-19.75v-7.4h7.4v7.4zm0 39.73v-7.4l7.4-.01v7.4H271zm-19.34-59.6v-7.4h7.4v7.4h-7.4z"/><use xlink:href="#O" x="-299.14" y="405.32"/><use xlink:href="#M" x="-379.51" y="221.73"/></g><g class="B"><path d="M470.44 421.75v-7.4h7.4v7.4h-7.4zm-.06 39.7l.12-7.4 7.4.1-.12 7.4zm.12-19.76l-.12-7.4 7.4-.13.1 7.4zm-.2 39.55l.26-7.4 7.38.25-.25 7.4-7.4-.25zm-19.2-59.48v-7.4h7.4v7.4h-7.4zm.05 39.8l-.12-7.4 7.4-.14.12 7.4zm0-19.88l-.12-7.4 7.4-.13.12 7.4zm-.2 39.55l.26-7.4 7.4.25-.26 7.4-7.4-.25zm-19.34-59.6l.25-7.4 7.4.25-.26 7.4-7.38-.25zm.06 39.8l.12-7.4 7.4.1-.12 7.4zm.12-19.75l-.1-7.4 7.38-.14.12 7.4z"/><use xlink:href="#M" x="-199.43" y="221.73"/><path d="M412.27 421.63l.25-7.4 7.4.25-.25 7.4-7.4-.25zm.06 39.8l.13-7.4 7.4.1-.13 7.4zm.12-19.75l-.1-7.4 7.4-.14.1 7.4z"/><use xlink:href="#M" x="-218.77" y="221.73"/><path d="M229.33 421.75v-7.4h7.4v7.4h-7.4zm.12 39.85l-.24-7.38 7.4-.26.23 7.4zm-.12-20v-7.4h7.4v7.4z"/><use xlink:href="#M" x="-401.84" y="221.73"/><path d="M209.98 421.75v-7.38l7.4-.01v7.4h-7.4zm.02 39.75v-7.4h7.4v7.4zm0-19.87v-7.4h7.4v7.42z"/><use xlink:href="#M" x="-421.19" y="221.73"/><path d="M190.63 421.75v-7.4h7.4v7.4h-7.4zm.12 39.85l-.23-7.38 7.38-.26.24 7.4zm-.18-20l.12-7.4 7.4.1-.12 7.4z"/><use xlink:href="#M" x="-440.54" y="221.73"/><use xlink:href="#M" x="-459.87" y="162.12"/><path d="M171.4 461.62l-.24-7.4 7.38-.26.24 7.4zm-.18-20.05l.1-7.4 7.4.1-.1 7.4z"/><use xlink:href="#M" x="-459.89" y="221.73"/></g><g class="C"><use xlink:href="#M" x="-241.1" y="324.25"/><use xlink:href="#O" x="-160.73" y="567.44"/><use xlink:href="#M" x="-241.1" y="383.85"/><use xlink:href="#M" x="-260.45" y="324.25"/><use xlink:href="#O" x="-180.08" y="567.44"/><use xlink:href="#M" x="-260.45" y="383.85"/><use xlink:href="#M" x="-279.8" y="324.25"/><use xlink:href="#O" x="-199.43" y="567.44"/><path d="M351.37 643.5v-7.4h7.4v7.4h-7.4z"/><use xlink:href="#M" x="-299.14" y="324.25"/><path d="M332.15 623.74l-.24-7.4 7.4-.25.23 7.4zm-.12-20v-7.4h7.4v7.4z"/><use xlink:href="#M" x="-299.15" y="383.85"/></g><g class="B"><use xlink:href="#D" x="-482.22" y="345.7"/><path d="M145.26 546.25v-14.78h14.78v14.8zm0-19.87V511.6h14.78v14.8z"/><use xlink:href="#D" x="-482.22" y="405.3"/><path d="M125.92 506.5v-14.78l14.77-.01v14.8h-14.77zm-.02 39.76v-14.78h14.8v14.8zm0-19.88V511.6h14.8v14.8z"/><use xlink:href="#D" x="-501.56" y="405.32"/><path d="M106.83 506.76l-.5-14.77 14.77-.52.5 14.78-14.77.5zm-.5 39.24l.48-14.77 14.77.46-.47 14.8zm.12-19.74l.23-14.78 14.78.2-.23 14.8z"/><use xlink:href="#D" x="-520.91" y="405.32"/><path d="M87.48 506.76l-.5-14.77 14.77-.52.5 14.78-14.77.5zm-.38 39.38l.24-14.78 14.78.2-.24 14.8zm0-19.87l.24-14.78 14.78.2-.24 14.8zm.12 39.85v-14.78l14.78-.01v14.8H87.22zM633.02 14.6v-3.7h3.7v3.7h-3.7zm.03 39.77l-.06-3.7 3.7-.08.06 3.72zm0-19.87l-.05-3.7 3.7-.08.06 3.72zm-.03 39.7v-3.7h3.7v3.7h-3.7zm-19.35-59.6v-3.7h3.7v3.7h-3.7z"/><use xlink:href="#J" x="279.8" y="-324.26"/><path d="M613.67 74.2v-3.7h3.7v3.7h-3.7zM594.4 14.66l-.13-3.7 3.7-.13.13 3.7-3.7.13zm-.1 39.64l.06-3.7h3.7l-.05 3.76zm0-19.84v-3.7h3.7v3.72zm.03 39.74v-3.7h3.7v3.7h-3.7zm-19.3-59.54l-.12-3.7 3.7-.13.13 3.7-3.7.13z"/><use xlink:href="#I" x="282.8"/><path d="M574.98 74.2v-3.7h3.7v3.7h-3.7zM391.9 419.9v-3.7h3.7v3.7h-3.7zm0 39.75V456h3.7v3.72zm0-19.84l-.06-3.7 3.7-.08.06 3.72zm0 39.7v-3.7h3.7v3.7h-3.7zm-19.33-59.6v-3.7h3.7v3.7h-3.7zm0 39.75V456h3.7v3.7zm0-19.87v-3.7h3.7v3.72z"/><use xlink:href="#B" x="279.81"/><path d="M353.22 419.9v-3.7h3.7v3.7h-3.7zm0 39.75V456h3.7v3.7zm0-19.87v-3.7h3.7v3.72z"/><use xlink:href="#B" x="260.46"/><path d="M333.87 419.9v-3.7h3.7v3.7h-3.7zm0 39.75V456h3.7v3.72zm0-19.87v-3.7h3.7v3.72zm0 39.72v-3.7h3.7v3.7h-3.7z"/><use xlink:href="#B" x="218.78" y="21.47"/><path d="M311.5 540.65l.12-3.7 3.7.1-.12 3.7zm.05-19.8v-3.7h3.7v3.7z"/><use xlink:href="#B" x="218.79" y="81.07"/><use xlink:href="#B" x="199.44" y="21.47"/><use xlink:href="#K" x="-80.37"/><use xlink:href="#B" x="199.44" y="81.08"/><use xlink:href="#B" x="180.09" y="21.47"/><path d="M272.9 540.77l-.12-3.7 3.7-.14.12 3.7zm-.06-19.93v-3.7h3.7v3.7z"/><use xlink:href="#B" x="180.09" y="81.08"/><use xlink:href="#B" x="160.74" y="21.47"/><use xlink:href="#K" x="-119.07"/><use xlink:href="#B" x="160.74" y="81.07"/><path d="M550.8 421.75v-7.4h7.4v7.4h-7.4zm.07 39.8l-.12-7.4 7.4-.13.12 7.4zm0-19.87l-.12-7.4 7.4-.13.12 7.4zm-.2 39.55l.26-7.4 7.38.25-.25 7.4-7.4-.25z"/><use xlink:href="#M" x="-99.71" y="162.13"/><use xlink:href="#N" x="-80.37" y="243.19"/><path d="M531.33 481.23l.26-7.4 7.4.25-.26 7.4-7.4-.25zM512 421.63l.25-7.4 7.4.25-.26 7.4-7.38-.25zm.05 39.8l.12-7.4 7.4.1-.12 7.4zm.12-19.76l-.12-7.38 7.4-.14.12 7.4z"/><use xlink:href="#M" x="-119.07" y="221.73"/><path d="M492.64 421.63l.25-7.4 7.4.25-.25 7.4-7.4-.25zm.06 39.8l.12-7.4 7.4.1-.12 7.4zm.1-19.76l-.1-7.38 7.4-.14.1 7.4z"/><use xlink:href="#M" x="-138.4" y="221.73"/><use xlink:href="#B" x="379.52" y="102.53"/><path d="M472.3 621.77v-3.7h3.7v3.7zm0-19.87v-3.7h3.7v3.7z"/><use xlink:href="#B" x="379.54" y="162.13"/><use xlink:href="#B" x="360.18" y="102.53"/><use xlink:href="#H" x="141.4" y="567.44"/><use xlink:href="#B" x="360.18" y="162.14"/><use xlink:href="#B" x="340.84" y="102.53"/><use xlink:href="#I" x="141.4" y="567.44"/><use xlink:href="#B" x="340.84" y="162.14"/><use xlink:href="#B" x="321.49" y="102.53"/><use xlink:href="#I" x="122.04" y="567.44"/><use xlink:href="#B" x="321.49" y="162.14"/></g><path d="M63.36 103.36l-.63-18.46 18.46-.65.64 18.47-18.47.64zm-.16 39.58l-.3-18.47 18.47-.33.3 18.5zm-.15-20v-18.5h18.48v18.5zm.3 40.02l-.63-18.46 18.46-.65.64 18.47-18.47.64zm-19.66-59.9V84.57l18.47-.01v18.5H43.7zm.15 39.9l-.3-18.47 18.46-.33.3 18.5zm-.3-20.17l.3-18.47 18.48.27-.32 18.5zm.47 40.2l-.64-18.47 18.46-.65.64 18.48-18.46.64zm-19.68-59.92V84.57l18.48-.01v18.5H24.34zm-.14 39.6l.3-18.47 18.48.27-.3 18.5zm0-19.87l.3-18.47 18.48.27-.3 18.5zm.47 40.2l-.64-18.47 18.47-.65.63 18.48-18.46.64zm-19.35-59.6L4.7 84.9l18.46-.65.64 18.47-18.47.64zm-.17 39.58l-.3-18.47 18.47-.33.3 18.5zm-.3-20.17l.3-18.47 18.47.27-.3 18.5zM5 162.65v-18.47l18.48-.01v18.48H5z" fill="#232326"/><path d="M144.34 345.3v-16.63l16.63-.01v16.64h-16.63zm.26 40l-.54-16.62 16.62-.55.54 16.64zm-.4-20.26l.26-16.63 16.63.25-.27 16.64zm.14 39.86v-16.63l16.62-.01.01 16.64h-16.63zm-19.06-59.3l-.57-16.62 16.62-.58.57 16.63-16.62.57zm-.42 39.32l.26-16.62 16.63.24-.26 16.65zm0-19.87l.26-16.63 16.63.25-.26 16.64zm.14 39.87V388.3h16.63v16.64H125zm-19.07-59.32l-.57-16.62 16.62-.58.57 16.63-16.62.57zm-.15 39.6l-.27-16.63 16.62-.3.28 16.65zm-.27-20.14l.26-16.63 16.63.25-.26 16.64zm.13 39.86V388.3h16.63v16.64h-16.63zM86.3 345.3v-16.63l16.62-.01v16.64H86.3zm-.14 39.62l.27-16.63 16.63.25-.27 16.65zm0-19.87l.27-16.63 16.63.25-.27 16.64zm.14 39.87V388.3h16.62v16.64H86.3z" class="B"/><path d="M225 264.53l-.58-16.62 16.62-.58.58 16.63-16.62.57zm-.43 39.33l.27-16.63 16.63.24-.27 16.65zm.14-19.74V267.5h16.62v16.65zm-.01 39.73v-16.63l16.62-.01.01 16.64H224.7zm-19.34-59.6v-16.63l16.63-.01v16.64h-16.63zm-.13 39.6l.26-16.63 16.63.25-.27 16.64zm0-19.87l.26-16.63 16.63.25-.27 16.64zm.42 40.14l-.57-16.62 16.62-.58.57 16.63-16.62.57zM186 264.25v-16.63l16.63-.01v16.64H186zm-.12 39.6l.26-16.63 16.63.25-.26 16.64zm0-19.87l.26-16.63 16.63.25-.26 16.64zm.42 40.14l-.57-16.6 16.62-.6.57 16.63-16.62.57zm-19.64-59.88v-16.63l16.63-.01v16.64h-16.63zm-.13 39.6l.27-16.63 16.62.25-.26 16.64zm0-19.87l.27-16.63 16.62.24-.26 16.65zm.13 39.86v-16.63l16.63-.01v16.64h-16.63zm58.97 263.73v-14.8h14.78v14.8h-14.78zm-.23 39.5l.47-14.77 14.78.46-.48 14.8zm.23-19.62v-14.78h14.78v14.8zm0 39.73V632.4h14.78v14.8h-14.78zm-19.35-59.6V572.8h14.78v14.8h-14.78zm0 39.74v-14.78h14.8v14.8zm0-19.87v-14.78h14.8v14.8zm0 39.73V632.4h14.78v14.8h-14.78zm-19.34-59.6V572.8h14.78v14.8h-14.78zm0 39.74v-14.78h14.78v14.8zm0-19.87v-14.78h14.78v14.8zm0 39.73V632.4h14.78v14.8h-14.78zm-19.34-59.6v-14.8h14.78v14.8H167.6zm0 39.74v-14.78h14.78v14.8zm0-19.87v-14.78h14.78v14.8zm0 39.73V632.4h14.78v14.8H167.6z" class="C"/><g class="B"><use xlink:href="#B" x="138.42" y="21.47"/><path d="M231.24 540.77l-.12-3.7 3.7-.14.12 3.7zm-.07-19.93v-3.7h3.7v3.72z"/><use xlink:href="#B" x="138.41" y="81.07"/><use xlink:href="#B" x="119.07" y="21.47"/><use xlink:href="#K" x="-160.74"/><use xlink:href="#B" x="119.07" y="81.07"/><use xlink:href="#B" x="99.72" y="21.47"/><path d="M192.54 540.77l-.12-3.7 3.7-.14.12 3.7zm-.06-19.93v-3.7h3.7v3.72z"/><use xlink:href="#B" x="99.72" y="81.07"/><use xlink:href="#B" x="80.37" y="21.47"/><use xlink:href="#K" x="-199.44"/><use xlink:href="#B" x="80.37" y="81.08"/></g></g><defs ><path id="B" d="M92.76 479.5v-3.7l3.7-.01v3.7h-3.7z"/><path id="C" d="M627.48 101.2V86.42l14.78-.01v14.8h-14.78z"/><path id="D" d="M627.48 160.8v-14.78l14.78-.01v14.8h-14.78z"/><path id="E" d="M632.96 479.44l.13-3.7 3.7.12-.13 3.7-3.7-.13z"/><path id="F" d="M613.7 459.68l-.06-3.7 3.7-.08.06 3.7zm0-19.87l-.06-3.7 3.7-.08.06 3.7z"/><path id="G" d="M613.62 479.45l.12-3.7 3.7.12-.13 3.7-3.7-.13z"/><path id="H" d="M311.54 54.34v-3.7h3.7v3.72zm0-19.88v-3.7h3.7v3.7z"/><path id="I" d="M292.2 54.34v-3.7h3.7v3.72zm0-19.87v-3.7h3.7v3.72z"/><path id="J" d="M333.84 378.56l.06-3.7h3.7l-.06 3.72zm.06-19.8l-.06-3.7 3.7-.08.06 3.72z"/><path id="K" d="M372.57 540.7V537h3.7v3.7zm0-19.87v-3.7h3.7v3.7z"/><path id="L" d="M147.3 99.54l-.38-11.08 11.08-.4.38 11.1-11.08.38z"/><path id="M" d="M631.17 259.63v-7.4l7.4-.01v7.4h-7.4z"/><path id="N" d="M611.77 218.25l.12-7.4 7.4.1-.12 7.4zm.12-19.75l-.12-7.4 7.4-.14.12 7.4z"/><path id="O" d="M550.8 56.18v-7.4h7.4v7.4zm0-19.87v-7.4h7.4v7.4z"/></defs></svg>
