<svg xmlns="http://www.w3.org/2000/svg" xmlns:xlink="http://www.w3.org/1999/xlink" viewBox="0 0 650 270"><defs><linearGradient id="A" x1="75.6" y1="23.58" x2="75.6" y2="232.4" gradientUnits="userSpaceOnUse"><stop offset="0" stop-color="#68f5a2"/><stop offset="1" stop-color="#4fc67f"/></linearGradient><path id="B" d="M244.3 159.3h-5.4v-34.38h5.4v5.82h.84q3.18-6.8 11.1-6.8a12.52 12.52 0 0 1 9.5 3.7q3.52 3.72 3.53 11.13v20.52h-5.4v-19.4c0-3.6-.8-6.3-2.42-8.1a8.41 8.41 0 0 0-6.59-2.7 9.53 9.53 0 0 0-7.73 3.36q-2.8 3.36-2.8 9z"/></defs><g fill="#fff"><path d="M212.28 67.93a11.64 11.64 0 0 0 5.09-1 9.65 9.65 0 0 0 3.47-2.7 11.56 11.56 0 0 0 2-3.88 15.86 15.86 0 0 0 .66-4.61v-.84h5.82v.83a21.06 21.06 0 0 1-1.11 6.9 16.08 16.08 0 0 1-3.21 5.61 14.76 14.76 0 0 1-5.37 3.76 18.57 18.57 0 0 1-7.35 1.36q-8 0-12.55-5.06-4.55-5.06-4.5-14.77V42.7q0-9.44 4.5-14.63 4.5-5.2 12.55-5.2a18.75 18.75 0 0 1 7.35 1.35A14.88 14.88 0 0 1 225 28a16.12 16.12 0 0 1 3.26 5.62 21.06 21.06 0 0 1 1.11 6.9v.83h-5.82v-.83a18 18 0 0 0-.73-4.58 11.42 11.42 0 0 0-2-3.91 9.68 9.68 0 0 0-3.43-2.71 11.59 11.59 0 0 0-5.06-1q-5.62 0-8.42 4.1-2.8 4.1-2.8 10.74v10q0 7.14 2.8 11 2.8 3.86 8.37 3.78zm59.06-12.33a18.93 18.93 0 0 1-1.42 7.59 16.74 16.74 0 0 1-3.78 5.55 16.07 16.07 0 0 1-5.51 3.43 18.88 18.88 0 0 1-13.14 0 16.09 16.09 0 0 1-5.49-3.43 16.74 16.74 0 0 1-3.78-5.55 18.93 18.93 0 0 1-1.42-7.59v-.83a18.75 18.75 0 0 1 1.42-7.52 16.85 16.85 0 0 1 3.81-5.58 16.19 16.19 0 0 1 5.51-3.47 18.6 18.6 0 0 1 13 0 16.19 16.19 0 0 1 5.51 3.47 16.85 16.85 0 0 1 3.81 5.58 18.75 18.75 0 0 1 1.42 7.52zm-17.26 12.6a12 12 0 0 0 4.61-.87 10.8 10.8 0 0 0 3.71-2.53 11.94 11.94 0 0 0 2.49-4 14.34 14.34 0 0 0 .91-5.23v-.83a14 14 0 0 0-.91-5.1 11.9 11.9 0 0 0-2.49-4 11.49 11.49 0 0 0-3.74-2.6 11.53 11.53 0 0 0-12.9 2.6 11.9 11.9 0 0 0-2.49 4 13.81 13.81 0 0 0-.91 5.1v.83a14.13 14.13 0 0 0 .91 5.23 11.94 11.94 0 0 0 2.49 4 10.7 10.7 0 0 0 3.71 2.53 12 12 0 0 0 4.61.87zm26-30.2h12.48v4.58h.83a8.88 8.88 0 0 1 3.74-4.2 11.23 11.23 0 0 1 5.55-1.38 11 11 0 0 1 8.39 3.4q3.18 3.4 3.4 9.9l-5.68.83c0-3.2-.77-5.48-2.3-6.9a8 8 0 0 0-5.62-2.12 7.8 7.8 0 0 0-3.7.83 7.52 7.52 0 0 0-2.6 2.29 9.7 9.7 0 0 0-1.53 3.4 17.26 17.26 0 0 0-.48 4.16v14.56h8.73v5h-22v-5h7.9V43h-7.07zm76.46 17.6a18.93 18.93 0 0 1-1.42 7.59 16.74 16.74 0 0 1-3.78 5.55 16.07 16.07 0 0 1-5.51 3.43 18.88 18.88 0 0 1-13.14 0 16.23 16.23 0 0 1-5.48-3.43 16.57 16.57 0 0 1-3.77-5.55A18.93 18.93 0 0 1 322 55.6v-.83a18.75 18.75 0 0 1 1.42-7.52 16.7 16.7 0 0 1 3.81-5.58 16.19 16.19 0 0 1 5.51-3.47 18.6 18.6 0 0 1 13 0 16.29 16.29 0 0 1 5.51 3.47 16.85 16.85 0 0 1 3.81 5.58 18.75 18.75 0 0 1 1.42 7.52zm-17.26 12.6a12 12 0 0 0 4.61-.87 10.8 10.8 0 0 0 3.71-2.53 11.94 11.94 0 0 0 2.49-4 14.34 14.34 0 0 0 .9-5.23v-.83a14 14 0 0 0-.9-5.1 11.9 11.9 0 0 0-2.49-4 11.43 11.43 0 0 0-3.75-2.6 11.6 11.6 0 0 0-9.15 0 11.39 11.39 0 0 0-3.74 2.6 11.92 11.92 0 0 0-2.5 4 14 14 0 0 0-.9 5.1v.83a14.34 14.34 0 0 0 .9 5.23 12 12 0 0 0 2.5 4 10.7 10.7 0 0 0 3.71 2.53 12 12 0 0 0 4.61.87zm32.3 4.17h-5.4V38h5.4v5.8h.84q3.18-6.8 11.1-6.8a12.53 12.53 0 0 1 9.5 3.71q3.53 3.7 3.53 11.13v20.53h-5.4V53c0-3.6-.8-6.3-2.42-8.12a8.43 8.43 0 0 0-6.59-2.7 9.53 9.53 0 0 0-7.73 3.36c-1.87 2.24-2.8 5.24-2.8 9zm61.62-5.83h-.83a11.31 11.31 0 0 1-4.61 5.13 12.41 12.41 0 0 1-6.2 1.67 16.94 16.94 0 0 1-6.31-1.15 14.34 14.34 0 0 1-5.1-3.39 16.1 16.1 0 0 1-3.43-5.51 21.17 21.17 0 0 1-1.25-7.56v-1.1a20.93 20.93 0 0 1 1.25-7.49 16.1 16.1 0 0 1 3.43-5.51 14.85 14.85 0 0 1 5.1-3.43 16.21 16.21 0 0 1 6.17-1.19 13.22 13.22 0 0 1 6.41 1.56 11 11 0 0 1 4.54 4.82h.83V38h5.4v27.3c0 1.38.63 2.07 1.87 2.07h1.73v5h-3.67a5.15 5.15 0 0 1-3.85-1.53 5.33 5.33 0 0 1-1.49-3.84zm-11.1 1.67a11 11 0 0 0 4.47-.9 9.91 9.91 0 0 0 3.5-2.57 12.19 12.19 0 0 0 2.29-4 15 15 0 0 0 .83-5.16v-.83a14.91 14.91 0 0 0-.83-5.1 11.86 11.86 0 0 0-2.32-4 10.59 10.59 0 0 0-3.54-2.6 10.35 10.35 0 0 0-4.4-.94 10.51 10.51 0 0 0-7.94 3.43 11.79 11.79 0 0 0-2.32 4 15.15 15.15 0 0 0-.83 5.1v1.1q0 5.9 3.08 9.18a10.47 10.47 0 0 0 8.01 3.28zM478 37.84a8.86 8.86 0 0 0-.94-4.16 8.59 8.59 0 0 0-2.53-3 12.08 12.08 0 0 0-3.67-1.8 15 15 0 0 0-4.37-.62 13.54 13.54 0 0 0-3.81.52 11 11 0 0 0-3.23 1.49 7.33 7.33 0 0 0-2.25 2.39 6.43 6.43 0 0 0-.83 3.29v.42a6.73 6.73 0 0 0 .83 3.43 7.07 7.07 0 0 0 2.46 2.43 15.86 15.86 0 0 0 4.06 1.66 48.92 48.92 0 0 0 5.68 1.14q7.64 1.2 11.23 4.47a11.39 11.39 0 0 1 3.61 8.84v.83a14.76 14.76 0 0 1-1.08 5.72 12 12 0 0 1-3.16 4.5 15.1 15.1 0 0 1-5.23 2.91 25.52 25.52 0 0 1-15.46-.3 16.55 16.55 0 0 1-6-3.74 16.23 16.23 0 0 1-3.64-5.61 19.4 19.4 0 0 1-1.25-7V53.5h5.83v1.66q0 6.4 3.5 9.57 3.5 3.18 9.74 3.2c3.6 0 6.32-.8 8.15-2.4a8 8 0 0 0 2.73-6.35v-.4a6.71 6.71 0 0 0-2.8-5.82q-2.82-2-9.12-2.92a34.2 34.2 0 0 1-6.62-1.49 16.85 16.85 0 0 1-5-2.63 11.14 11.14 0 0 1-3.18-3.92 12.25 12.25 0 0 1-1.1-5.4v-.84a11.57 11.57 0 0 1 1.17-5.2 12.58 12.58 0 0 1 3.3-4.09 15 15 0 0 1 5.06-2.66 23 23 0 0 1 13.79.24 16.43 16.43 0 0 1 5.44 3.15 13 13 0 0 1 3.37 4.65 14.07 14.07 0 0 1 1.14 5.58v2.9H478zm41.45 28.7h-.83a11.26 11.26 0 0 1-4.62 5.13 12.41 12.41 0 0 1-6.2 1.67 16.94 16.94 0 0 1-6.31-1.15 14.34 14.34 0 0 1-5.1-3.39 16.1 16.1 0 0 1-3.39-5.51 21.17 21.17 0 0 1-1.24-7.56v-1.1a20.93 20.93 0 0 1 1.24-7.49 16.1 16.1 0 0 1 3.43-5.51 14.85 14.85 0 0 1 5.1-3.43 16.21 16.21 0 0 1 6.14-1.19 13.22 13.22 0 0 1 6.41 1.56 11 11 0 0 1 4.54 4.82h.83V38h5.4v27.3c0 1.38.63 2.07 1.87 2.07h1.74v5h-3.68a5.15 5.15 0 0 1-3.85-1.53 5.33 5.33 0 0 1-1.49-3.84zm-11.1 1.67a11 11 0 0 0 4.47-.9 9.82 9.82 0 0 0 3.5-2.57 12 12 0 0 0 2.29-4 15 15 0 0 0 .83-5.16v-.83a14.91 14.91 0 0 0-.83-5.1 11.86 11.86 0 0 0-2.32-4 10.55 10.55 0 0 0-3.53-2.6 10.42 10.42 0 0 0-4.41-.94 10.51 10.51 0 0 0-7.94 3.43 11.79 11.79 0 0 0-2.32 4 15.15 15.15 0 0 0-.83 5.1v1.1q0 5.9 3.08 9.18a10.47 10.47 0 0 0 8.01 3.28zM535.2 38h10.6v-8.75a5.32 5.32 0 0 1 1.49-3.89 5.15 5.15 0 0 1 3.85-1.52h13.58v5h-11.64c-1.25 0-1.88.7-1.88 2.08V38h14.36v5H551.2v29.4h-5.4V43h-10.6zm41.17 18.84a12.19 12.19 0 0 0 3.19 8.25q3 3.12 8.32 3.12a14.45 14.45 0 0 0 4.23-.56 9.85 9.85 0 0 0 3.08-1.52 8.24 8.24 0 0 0 2.08-2.26 12.62 12.62 0 0 0 1.28-2.73l5.13 1.38a15.18 15.18 0 0 1-5.37 7.8q-3.9 3-10.57 3a17.36 17.36 0 0 1-6.74-1.27 15 15 0 0 1-5.3-3.63 17 17 0 0 1-3.47-5.62 20.06 20.06 0 0 1-1.23-7.21v-1.66a17.61 17.61 0 0 1 1.28-6.73 16 16 0 0 1 3.58-5.37 16.74 16.74 0 0 1 5.37-3.54 17.3 17.3 0 0 1 6.65-1.29 16 16 0 0 1 7.31 1.56 16.22 16.22 0 0 1 5.06 3.85 15.05 15.05 0 0 1 2.91 5 15.21 15.21 0 0 1 .94 5v4.44zm11.5-14.7a12.16 12.16 0 0 0-4.27.73 10.88 10.88 0 0 0-3.46 2 10.73 10.73 0 0 0-2.43 3.13 11.34 11.34 0 0 0-1.21 3.85h22.18a10 10 0 0 0-1.07-4 9.87 9.87 0 0 0-2.43-3 11.21 11.21 0 0 0-3.4-2 11.38 11.38 0 0 0-3.91-.71zM197.3 110.78h29.4v5.4h-23.57v16.08h23.15v5.4h-23.15v16.22h24v5.4H197.3z"/><use xlink:href="#B"/><path d="M307.1 154h-.83a11.1 11.1 0 0 1-4.54 4.68 13 13 0 0 1-6.27 1.56 17.8 17.8 0 0 1-6.47-1.14 16 16 0 0 1-5.37-3.39 15.82 15.82 0 0 1-3.68-5.51 19.75 19.75 0 0 1-1.35-7.53v-1.1a19 19 0 0 1 1.39-7.46 16.86 16.86 0 0 1 3.67-5.54 15.66 15.66 0 0 1 5.34-3.44 17.65 17.65 0 0 1 6.38-1.17 12.79 12.79 0 0 1 6.55 1.63 11.18 11.18 0 0 1 4.4 4.74h.83v-5.4h5.4v42.84a5.34 5.34 0 0 1-1.49 3.88 5.14 5.14 0 0 1-3.85 1.53h-22.4v-5h20.45c1.25 0 1.87-.7 1.87-2.08zm-11.5 1.1a11.2 11.2 0 0 0 4.5-.9 10.79 10.79 0 0 0 3.64-2.56 12.2 12.2 0 0 0 2.46-4 14.19 14.19 0 0 0 .9-5.16v-.84a14 14 0 0 0-.9-5.09 12.2 12.2 0 0 0-2.46-4 11.25 11.25 0 0 0-3.67-2.6 11 11 0 0 0-4.47-.93 11.51 11.51 0 0 0-4.55.9 10.81 10.81 0 0 0-3.67 2.56 11.93 11.93 0 0 0-2.39 4.01 14.42 14.42 0 0 0-.86 5.07v1.1a14.73 14.73 0 0 0 .86 5.2 11.4 11.4 0 0 0 2.43 3.92 10.62 10.62 0 0 0 3.64 2.5 11.94 11.94 0 0 0 4.54.86zm28.3-.78H336v-24.4h-10.86v-5h16.22v29.4h11.23v5h-28.7zm9.84-39.65a4.86 4.86 0 1 1 4.86 4.85 4.87 4.87 0 0 1-4.86-4.85zm34.72 44.63h-5.4v-34.38h5.4v5.82h.84q3.18-6.8 11.1-6.8a12.52 12.52 0 0 1 9.5 3.7q3.53 3.72 3.53 11.13v20.52H388v-19.4c0-3.6-.8-6.3-2.42-8.1a8.41 8.41 0 0 0-6.59-2.7 9.53 9.53 0 0 0-7.73 3.36q-2.8 3.36-2.8 9zm40.64-15.52a12.19 12.19 0 0 0 3.19 8.25q3 3.12 8.32 3.12a14.47 14.47 0 0 0 4.23-.55 9.87 9.87 0 0 0 3.08-1.53 8.06 8.06 0 0 0 2.08-2.25 12.92 12.92 0 0 0 1.28-2.74l5.13 1.4a15.18 15.18 0 0 1-5.37 7.8q-3.9 3-10.57 3a17.54 17.54 0 0 1-6.76-1.27 15.16 15.16 0 0 1-5.3-3.64 16.86 16.86 0 0 1-3.47-5.61 20.1 20.1 0 0 1-1.25-7.21v-1.67a17.59 17.59 0 0 1 1.28-6.72 16.1 16.1 0 0 1 3.58-5.38 16.55 16.55 0 0 1 5.37-3.53 17.11 17.11 0 0 1 6.69-1.24 16 16 0 0 1 7.31 1.56 16.35 16.35 0 0 1 5.06 3.84 16 16 0 0 1 3.85 10v4.43zm11.5-14.7a12.39 12.39 0 0 0-4.27.72 10.86 10.86 0 0 0-5.89 5.13 11.34 11.34 0 0 0-1.21 3.85h22.18a9.84 9.84 0 0 0-3.5-7.07 11.19 11.19 0 0 0-3.4-1.94 11.38 11.38 0 0 0-3.91-.69zm31.6 14.7a12.19 12.19 0 0 0 3.19 8.22q3 3.12 8.32 3.12a14.47 14.47 0 0 0 4.23-.55 9.87 9.87 0 0 0 3.08-1.53 8.06 8.06 0 0 0 2.08-2.25 12.92 12.92 0 0 0 1.28-2.74l5.13 1.4a15.18 15.18 0 0 1-5.37 7.8q-3.9 3-10.57 3a17.54 17.54 0 0 1-6.76-1.28 15.25 15.25 0 0 1-5.3-3.64 16.86 16.86 0 0 1-3.47-5.61 20.1 20.1 0 0 1-1.25-7.21v-1.67a17.59 17.59 0 0 1 1.28-6.72 16.1 16.1 0 0 1 3.58-5.38 16.55 16.55 0 0 1 5.37-3.53 17.11 17.11 0 0 1 6.69-1.28 16 16 0 0 1 7.31 1.56 16.35 16.35 0 0 1 5.06 3.84 16 16 0 0 1 3.85 10v4.43zm11.5-14.7a12.39 12.39 0 0 0-4.27.72 10.86 10.86 0 0 0-5.89 5.13 11.34 11.34 0 0 0-1.21 3.85h22.18a9.84 9.84 0 0 0-3.5-7.07 11.07 11.07 0 0 0-3.4-1.94 11.38 11.38 0 0 0-3.91-.69zm25.73-4.15h12.48v4.57h.84a8.85 8.85 0 0 1 3.74-4.19A11.21 11.21 0 0 1 512 124a11 11 0 0 1 8.38 3.39q3.2 3.4 3.4 9.92l-5.68.83c0-3.2-.77-5.5-2.3-6.9a8 8 0 0 0-5.62-2.11 7.73 7.73 0 0 0-3.71.83 7.51 7.51 0 0 0-2.6 2.29 9.9 9.9 0 0 0-1.52 3.39 16.82 16.82 0 0 0-.49 4.16v14.56h8.74v5h-22v-5h7.9v-24.4h-7.08zm43.82 29.4h12.06v-24.4h-10.8v-5h16.22v29.4H562v5h-28.7zm9.84-39.65a4.86 4.86 0 1 1 4.86 4.85 4.85 4.85 0 0 1-4.86-4.85z"/><use xlink:href="#B" x="332.48"/><path d="M639.6 154h-.83a11.1 11.1 0 0 1-4.54 4.68 13 13 0 0 1-6.27 1.56 17.8 17.8 0 0 1-6.52-1.18 15.6 15.6 0 0 1-9-8.9 19.75 19.75 0 0 1-1.35-7.53v-1.1a19 19 0 0 1 1.39-7.46 16.86 16.86 0 0 1 3.67-5.54 15.66 15.66 0 0 1 5.34-3.44 17.65 17.65 0 0 1 6.38-1.17 12.79 12.79 0 0 1 6.55 1.63 11.18 11.18 0 0 1 4.4 4.74h.83v-5.4H645v42.84a5.34 5.34 0 0 1-1.49 3.88 5.15 5.15 0 0 1-3.85 1.53h-22.4v-5h20.45c1.25 0 1.87-.7 1.87-2.08zm-11.5 1.1a11.23 11.23 0 0 0 4.5-.9 10.79 10.79 0 0 0 3.64-2.56 12.2 12.2 0 0 0 2.46-4 14.19 14.19 0 0 0 .9-5.16v-.84a14 14 0 0 0-.9-5.09 12.2 12.2 0 0 0-2.46-4 11.35 11.35 0 0 0-3.67-2.6 11 11 0 0 0-4.47-.93 11.51 11.51 0 0 0-4.55.9 10.71 10.71 0 0 0-3.67 2.56 11.93 11.93 0 0 0-2.43 3.95 14.2 14.2 0 0 0-.86 5.07v1.1a14.5 14.5 0 0 0 .86 5.2 11.4 11.4 0 0 0 2.43 3.92 10.62 10.62 0 0 0 3.64 2.5 11.94 11.94 0 0 0 4.58.92zm-430.73 42.63h29.8v5.4h-24v16.08h23.57v5.4H203.2v21.63h-5.83zm43.4 33A12.19 12.19 0 0 0 244 239c2 2.08 4.76 3.12 8.32 3.12a14.5 14.5 0 0 0 4.23-.56 9.85 9.85 0 0 0 3.08-1.52 8.35 8.35 0 0 0 2.08-2.25A12.92 12.92 0 0 0 263 235l5.13 1.38a15.18 15.18 0 0 1-5.37 7.8q-3.9 3-10.57 3a17.54 17.54 0 0 1-6.76-1.28 15.16 15.16 0 0 1-5.3-3.64 17 17 0 0 1-3.47-5.62 20 20 0 0 1-1.25-7.21v-1.66a17.61 17.61 0 0 1 1.28-6.73 16 16 0 0 1 3.58-5.37 16.74 16.74 0 0 1 5.37-3.54 17.3 17.3 0 0 1 6.69-1.28 16 16 0 0 1 7.31 1.56 16.22 16.22 0 0 1 5.06 3.85 15.05 15.05 0 0 1 2.91 5 15.21 15.21 0 0 1 .94 5v4.44zm11.5-14.73a12.16 12.16 0 0 0-4.27.73 11.07 11.07 0 0 0-3.46 2 10.73 10.73 0 0 0-2.43 3.09 11.34 11.34 0 0 0-1.21 3.85h22.18a10 10 0 0 0-1.07-4 9.87 9.87 0 0 0-2.43-3.05 11 11 0 0 0-3.4-1.94 11.16 11.16 0 0 0-3.91-.68zm25.6 25.27h12.48v-38.55h-12.06v-5h17.47v43.54h12.47v5h-30.36zm41.04 0h12.48v-38.55h-12.06v-5h17.47v43.54h12.47v5H318.9zm72.44-11.8a18.93 18.93 0 0 1-1.42 7.59 16.74 16.74 0 0 1-3.78 5.55 16.07 16.07 0 0 1-5.51 3.43 18.88 18.88 0 0 1-13.14 0 16.09 16.09 0 0 1-5.47-3.43 16.74 16.74 0 0 1-3.78-5.55 18.93 18.93 0 0 1-1.42-7.59v-.83a18.75 18.75 0 0 1 1.42-7.52 16.85 16.85 0 0 1 3.81-5.58 16.19 16.19 0 0 1 5.51-3.47 18.6 18.6 0 0 1 13 0 16.19 16.19 0 0 1 5.51 3.47 16.85 16.85 0 0 1 3.81 5.58 18.75 18.75 0 0 1 1.42 7.52zm-17.26 12.62a12 12 0 0 0 4.61-.87 10.8 10.8 0 0 0 3.71-2.53 11.94 11.94 0 0 0 2.49-4 14.34 14.34 0 0 0 .91-5.23v-.83a14 14 0 0 0-.91-5.1 12 12 0 0 0-2.49-4 11.49 11.49 0 0 0-3.74-2.6 11.53 11.53 0 0 0-12.9 2.6 12 12 0 0 0-2.49 4 13.81 13.81 0 0 0-.91 5.1v.83a14.13 14.13 0 0 0 .91 5.23 11.94 11.94 0 0 0 2.49 4 10.7 10.7 0 0 0 3.71 2.53 12 12 0 0 0 4.61.87zm60.8 4.16h-10l-4.16-31.9h-.84l-4.16 31.9h-10l-5.4-34.4h5.55l4.58 31.9h.83l4-31.9h10l4 31.9h.83l4.58-31.9h5.55zm20.52-25.5a4.23 4.23 0 0 0 2.11 3.81c1.4.88 4 1.45 7.73 1.73 4 .33 7.1 1.28 9.2 2.88a8.21 8.21 0 0 1 3.15 7v.4a9.68 9.68 0 0 1-1 4.47 10 10 0 0 1-2.78 3.37 12.39 12.39 0 0 1-4.29 2.11 20.14 20.14 0 0 1-5.52.73 19.58 19.58 0 0 1-6.89-1.08 14.26 14.26 0 0 1-4.79-2.84 11.77 11.77 0 0 1-2.87-4 13.37 13.37 0 0 1-1.11-4.54l5.13-1.25a9.17 9.17 0 0 0 3.05 6.34 10.45 10.45 0 0 0 7.21 2.4 11.24 11.24 0 0 0 6.13-1.49 4.74 4.74 0 0 0 2.33-4.2 4.37 4.37 0 0 0-2.29-4.16q-2.3-1.24-7.42-1.6-6-.42-9.15-2.77a8 8 0 0 1-3.19-6.87v-.4a8.57 8.57 0 0 1 1-4.27 9.39 9.39 0 0 1 2.87-3.13 12.79 12.79 0 0 1 4-1.87 17 17 0 0 1 4.65-.63 17.22 17.22 0 0 1 6 .94 13.79 13.79 0 0 1 4.3 2.42 10.74 10.74 0 0 1 2.67 3.44 13.09 13.09 0 0 1 1.21 3.88l-5.13 1.25a7.32 7.32 0 0 0-2.67-5.2 9.36 9.36 0 0 0-6.06-1.88 12.35 12.35 0 0 0-2.81.32 8.11 8.11 0 0 0-2.39.93 5.22 5.22 0 0 0-1.67 1.56 3.9 3.9 0 0 0-.7 2.19zm37.22 25.5h-5.4v-48.53h5.4v20.38h.84a13 13 0 0 1 4.47-5.27 12.29 12.29 0 0 1 7-1.94 12 12 0 0 1 9.12 3.71q3.5 3.7 3.5 11.13v20.52h-5.4v-19.4c0-3.6-.8-6.3-2.42-8.12a8.43 8.43 0 0 0-6.59-2.7 9.53 9.53 0 0 0-7.73 3.36 13.6 13.6 0 0 0-2.81 9zm35.43-5h12.06v-24.4h-10.8v-5h16.22v29.4h11.23v5h-28.7zm9.84-39.66a4.88 4.88 0 1 1 1.43 3.43 4.68 4.68 0 0 1-1.43-3.43zm35.57 58.5h-5.4v-48.25h5.4v5.4h.83a11.9 11.9 0 0 1 5-4.75 15.12 15.12 0 0 1 6.94-1.63 15.73 15.73 0 0 1 6 1.18 15.13 15.13 0 0 1 5 3.4 16.11 16.11 0 0 1 3.47 5.47 20.29 20.29 0 0 1 1.28 7.42v1.4a20.83 20.83 0 0 1-1.25 7.48 15.54 15.54 0 0 1-3.43 5.48 14.49 14.49 0 0 1-5.09 3.36 16.62 16.62 0 0 1-6.17 1.15 16 16 0 0 1-3.4-.38 14.11 14.11 0 0 1-3.3-1.18 14.62 14.62 0 0 1-2.87-1.94 10.43 10.43 0 0 1-2.22-2.74h-.83zm11.5-18a11.74 11.74 0 0 0 4.57-.87 11 11 0 0 0 3.64-2.46 11.13 11.13 0 0 0 2.43-3.88 14.6 14.6 0 0 0 .86-5.13v-1.4a14 14 0 0 0-.86-5 11.56 11.56 0 0 0-2.43-3.89 11.06 11.06 0 0 0-3.67-2.53 11.5 11.5 0 0 0-4.5-.96 10.78 10.78 0 0 0-4.51.94 11.19 11.19 0 0 0-3.64 2.6 12.26 12.26 0 0 0-2.46 4 14 14 0 0 0-.9 5.1v.83a14.2 14.2 0 0 0 .9 5.17 12.26 12.26 0 0 0 2.46 4 10.82 10.82 0 0 0 3.64 2.57 11.25 11.25 0 0 0 4.51.89z"/></g><path d="M42.1 203.14l10.57 10.57-10.57 10.57-10.57-10.57zm10.57-10.57l10.57 10.57-10.57 10.57 10.57 10.57L95 192.57l-21.18-21.14zm12.1-42.3v-29.9H34.9v15H20v14.95zM5 120.36v15h15v-15zM73.38 99l21.14-21.13-21.14-21.14L62.8 67.3 52.24 56.73 41.68 67.3zM52.24 35.6L41.68 46.16l10.56 10.57L62.8 46.16zM145.6 9.05h-14.94V24h14.94zm0 29.9h-14.94V24h-15v44.84h29.9zm-29.28 162.2v29.9h14.95V246h15v-44.84zm0 59.8h14.95V246H116.3zm29.6-140.9H116V150h29.9z" fill="url(#A)"/></svg>
