<svg id="fe93fe91-ec51-49c3-889d-26c2920f0588" data-name="Layer 1" xmlns="http://www.w3.org/2000/svg" viewBox="0 0 300.48 104.28"><title>freshworks-logo</title><path d="M74.6,29.29c-7.26,0-9.87,5.08-9.87,9.87v2.9H63.28a2,2,0,0,0,0,4.07h1.45v20a2.18,2.18,0,0,0,2.18,2.17,2,2,0,0,0,2.18-1.87V46h4.64a2,2,0,0,0,0-4.06H69.09V39c0-2.61,1-5.8,5.66-5.8a1.89,1.89,0,0,0,2-1.74.76.76,0,0,0,0-.15A2.18,2.18,0,0,0,74.6,29.29Z" fill="#4d4d4d"/><path d="M91.15,41.34a8.39,8.39,0,0,0-7.26,3.48V43.66a2.18,2.18,0,1,0-4.35,0V66a2.18,2.18,0,0,0,2.17,2.18,2,2,0,0,0,2.18-1.88,1.5,1.5,0,0,0,0-.3V53.67c0-5.22,2.76-8.27,7.26-8.27a2,2,0,0,0,2-2h0a2,2,0,0,0-2-2Z" fill="#4d4d4d"/><path d="M114.23,62a1.64,1.64,0,0,0-1.17.43,10,10,0,0,1-6.38,2.32c-4.79,0-7.84-3.19-8-8.27h15.68c2.47-.29,2.47-2.61,2.47-4.06a13.11,13.11,0,0,0-2-7A10,10,0,0,0,106,41.34c-7.4,0-11.61,4.93-11.61,13.49s4.21,13.65,12.19,13.65a12.68,12.68,0,0,0,8.86-3.19,1.77,1.77,0,0,0,.72-1.46A1.88,1.88,0,0,0,114.23,62ZM106.1,45.11c4.35,0,6.53,2.47,6.67,7.26H98.69C99.13,47.72,101.74,45.11,106.1,45.11Z" fill="#4d4d4d"/><path d="M131.06,52.66c-3.19-1.16-5.8-2-5.8-4.36s2.9-2.9,4.5-2.9a7.68,7.68,0,0,1,5.8,2.18,2,2,0,0,0,2.76,0,1.89,1.89,0,0,0,.58-1.45,2.29,2.29,0,0,0-.44-1.31,10.3,10.3,0,0,0-8.56-3.63c-5.37,0-8.71,2.76-8.71,7s4.65,6.82,8.71,8.27,5.81,1.89,5.81,4.21-3.49,3.63-5.52,3.63a8.88,8.88,0,0,1-6.68-2.61,2.68,2.68,0,0,0-1.45-.73,1.89,1.89,0,0,0-1.88,1.89,2.32,2.32,0,0,0,.43,1.3,12.34,12.34,0,0,0,9.58,4.36c6.1,0,9.73-2.9,9.73-7.55S135.13,54.11,131.06,52.66Z" fill="#4d4d4d"/><path d="M156.17,41.19a8.72,8.72,0,0,0-7,3.05V30A2.18,2.18,0,0,0,147,27.84a2,2,0,0,0-2,2,.86.86,0,0,0,0,.16V66a2.11,2.11,0,1,0,4.21,0V52.51q0-7.4,7-7.4c4.65,0,6.24,2,6.24,7V66a2.19,2.19,0,0,0,2.18,2.18,2,2,0,0,0,2-2,.76.76,0,0,0,0-.15V51.35C166.62,44.67,163.14,41.19,156.17,41.19Z" fill="#4d4d4d"/><path d="M201.75,41.63a2.17,2.17,0,0,0-2,1.45l-6.1,17.13-4.94-17.13a2.16,2.16,0,0,0-2.75-1.31,2.34,2.34,0,0,0-1.31,1.31l-4.93,17.13-5.81-17.28a1.74,1.74,0,0,0-2-1.3,2,2,0,0,0-2,2h0a1.74,1.74,0,0,0,.14.87l8.13,22.21a2,2,0,0,0,2,1.45,2.17,2.17,0,0,0,2-1.45l4.79-16.26,4.79,16.26a2.18,2.18,0,0,0,4.07,0l8.13-22.21a2,2,0,0,0,.14-.87A2.46,2.46,0,0,0,201.75,41.63Z" fill="#4d4d4d"/><path d="M217.13,41.19c-7.69,0-11.9,4.79-11.9,13.5s4.21,13.64,11.9,13.64S229,63.54,229,54.69,224.83,41.19,217.13,41.19Zm0,23.22c-5.08,0-7.69-3.19-7.69-9.72S212.05,45,217.13,45s7.55,3.33,7.55,9.72S222.21,64.56,217.13,64.41Z" fill="#4d4d4d"/><path d="M245.29,41.34A8.42,8.42,0,0,0,238,44.82V43.66a2.18,2.18,0,1,0-4.2-.15V65.87A2.18,2.18,0,0,0,238,67.12,2.2,2.2,0,0,0,238,66V53.67c0-5.22,2.76-8.27,7.26-8.27a2,2,0,1,0,0-4.06Z" fill="#4d4d4d"/><path d="M261.4,52.37l8.71-7a2,2,0,0,0,.87-1.74,2,2,0,0,0-2-2,1.86,1.86,0,0,0-1.45.58L255,52.37V30a2.18,2.18,0,1,0-4.17-1.25,2.05,2.05,0,0,0,0,1.1v36A2.18,2.18,0,1,0,255,66V57.3l2.9-2.32,9.58,12.19a2.49,2.49,0,0,0,1.74,1,2.08,2.08,0,0,0,1.6-3.34Z" fill="#4d4d4d"/><path d="M285.21,52.66c-3.2-1.16-5.81-2-5.81-4.36s2.9-2.9,4.5-2.9a7.7,7.7,0,0,1,5.81,2.18,1.9,1.9,0,0,0,1.45.58,2,2,0,0,0,1.74-2,2.29,2.29,0,0,0-.44-1.31,10.3,10.3,0,0,0-8.56-3.63c-5.37,0-8.71,2.76-8.71,7s4.65,6.82,8.71,8.27,5.81,1.89,5.81,4.21-3.49,3.63-5.52,3.63a8.88,8.88,0,0,1-6.68-2.61,2.68,2.68,0,0,0-1.45-.73,1.89,1.89,0,0,0-1.88,1.89h0a2.32,2.32,0,0,0,.43,1.3,12.2,12.2,0,0,0,9.73,4.07c6.09,0,9.72-2.9,9.72-7.55s-4.79-6.53-8.85-8Z" fill="#4d4d4d"/><path d="M4.35,64.85a24.23,24.23,0,0,0,7,13.79l8.42-8.42A24.82,24.82,0,0,1,32.07,48.74Z" fill="#9b65c3"/><path d="M19.74,70.22A24.42,24.42,0,0,1,7.4,66.88l-3.05-2a24.23,24.23,0,0,0,7,13.79Z" fill="#9b65c3"/><path d="M19.74,70.22l-8.42,8.42a24.26,24.26,0,0,0,13.79,7l16-27.73A24.65,24.65,0,0,1,19.74,70.22Z" fill="#be63c5"/><path d="M23.07,82.56a24.54,24.54,0,0,1-3.33-12.34l-8.42,8.42a24.26,24.26,0,0,0,13.79,7C24.38,84.59,23.65,83.57,23.07,82.56Z" fill="#bf63c6"/><path d="M51.23,37.71l-19.16,11a25,25,0,0,1-24.67,0A25.19,25.19,0,0,0,4.06,61.22a29.28,29.28,0,0,0,.29,3.63l3.05,2a24.42,24.42,0,0,0,12.34,3.34L51.67,38.29Z" fill="#3278b1"/><path d="M7.4,66.88a24.42,24.42,0,0,0,12.34,3.34A24.82,24.82,0,0,1,32.07,48.74L4.35,64.7A20.4,20.4,0,0,0,7.4,66.88Z" fill="#3278b2"/><path d="M7.4,48.74A25.19,25.19,0,0,0,4.06,61.22a29.28,29.28,0,0,0,.29,3.63L32.07,48.74A24.23,24.23,0,0,1,7.4,48.74Z" fill="#45a4ec"/><path d="M51.67,38.29l-1.16-1a5.77,5.77,0,0,0-3-.87H28.73A24.65,24.65,0,0,0,7.4,48.74a25,25,0,0,0,24.67,0A24.66,24.66,0,0,0,19.74,70.22,24.82,24.82,0,0,0,41.22,57.88l11-19.16Z" fill="#19bb7d"/><path d="M32.07,48.74l19.16-11-.72-.58L7.4,48.74A24.23,24.23,0,0,0,32.07,48.74Z" fill="#08c7fb"/><path d="M47.31,36.4H28.73A24.65,24.65,0,0,0,7.4,48.74L50.51,37.13A7.84,7.84,0,0,0,47.31,36.4Z" fill="#59f2f6"/><path d="M41.22,57.88l11-19.16-.44-.58L19.88,70.08a24.51,24.51,0,0,0,3.34,12.33c.58,1,1.31,2,2,3l3.48.29a24.42,24.42,0,0,0,12.34-3.34A24.4,24.4,0,0,1,41.22,57.88Z" fill="#da3757"/><path d="M19.74,70.22a24.54,24.54,0,0,0,3.33,12.34c.58,1,1.31,2,2,3l16-27.73A24.65,24.65,0,0,1,19.74,70.22Z" fill="#d33c4e"/><path d="M41.22,57.88l-16,27.73,3.63.29a24.65,24.65,0,0,0,12.34-3.34A24.25,24.25,0,0,1,41.22,57.88Z" fill="#ee5a24"/><path d="M52.68,39.45a5.65,5.65,0,0,0-1.45-1.74l-19.16,11A24.66,24.66,0,0,0,19.74,70.22,24.82,24.82,0,0,0,41.22,57.88a25,25,0,0,0,0,24.68A24.67,24.67,0,0,0,53.55,61.37V42.64A6.1,6.1,0,0,0,52.68,39.45Z" fill="#8bdf55"/><path d="M51.23,37.71l-19.16,11A24.66,24.66,0,0,0,19.74,70.22L51.67,38.29Z" fill="#25c16f"/><path d="M19.74,70.22A24.82,24.82,0,0,0,41.22,57.88l11-19.16-.44-.58Z" fill="#8bdf55"/><path d="M52.25,38.72l-11,19.16a25,25,0,0,0,0,24.68L52.83,39.45Z" fill="#fb0"/><path d="M41.22,82.56A24.38,24.38,0,0,0,53.55,61.22V42.64a6.1,6.1,0,0,0-.87-3.19Z" fill="#ffa800"/></svg>