<?xml version="1.0" encoding="utf-8"?>
<!-- Generator: Adobe Illustrator 25.4.1, SVG Export Plug-In . SVG Version: 6.00 Build 0)  -->
<svg version="1.1" id="Layer_1" xmlns="http://www.w3.org/2000/svg" xmlns:xlink="http://www.w3.org/1999/xlink" x="0px" y="0px"
	 viewBox="0 0 820 200" style="enable-background:new 0 0 820 200;" xml:space="preserve">
<style type="text/css">
	.st0{fill:#4D1E9A;}
</style>
<path class="st0" d="M188.4,74.2h12v6.9c5.3-5.9,13.7-8.3,21.6-8.3c21,0,32.5,16.8,32.5,35.9c0,19.3-11.5,35.9-32.8,35.9
	c-8.1,0-16-2.4-21.3-8.3v35.5h-19.1V81.3C181.3,77.4,184.5,74.2,188.4,74.2z M235.9,108.7c0-11.5-5.7-20.4-18.4-20.4
	s-18.7,8.8-18.7,20.4s5.9,20.6,18.7,20.6S235.9,120.1,235.9,108.7L235.9,108.7z M265.2,115.7V81.3c0-3.9,3.2-7.1,7.1-7.1h11.2v39.3
	c0,9,5,15.5,14.5,15.5c10.4,0,17.1-5.1,17.1-17.1V81.3c0-3.9,3.2-7.1,7.1-7.1l0,0h11.3v68.9h-18.4v-8.1c-6.1,6.8-14.9,9.5-22.4,9.5
	C272.8,144.6,265.2,130.1,265.2,115.7L265.2,115.7z M355.5,74.2h12.1v6.9c5.3-5.9,13.7-8.3,21.6-8.3c21,0,32.5,16.8,32.5,35.9
	c0,19.3-11.5,35.9-32.8,35.9c-8.1,0-16-2.4-21.3-8.3v35.5h-19.1V81.3C348.5,77.4,351.6,74.2,355.5,74.2L355.5,74.2z M403,108.7
	c0-11.5-5.7-20.4-18.4-20.4s-18.7,8.8-18.7,20.4s5.9,20.6,18.7,20.6S403,120.1,403,108.7z M441.8,45.7h5.3c3.9,0,7.1,3.2,7.1,7.1
	v1.4c0,3.9-3.2,7.1-7.1,7.1c0,0,0,0,0,0h-5.3c-3.9,0-7.1-3.2-7.1-7.1c0,0,0,0,0,0v-1.4C434.8,48.8,437.9,45.6,441.8,45.7
	C441.9,45.6,441.9,45.6,441.8,45.7L441.8,45.7z M442.3,74.2h11.5v68.9h-18.5V81.3C435.3,77.4,438.4,74.2,442.3,74.2L442.3,74.2z
	 M470.4,129.5V52.7c0-3.9,3.2-7.1,7.1-7.1H489v79.2c0,3.2,2.4,4.6,6.1,4.6c1.7,0,3.4-0.2,5.1-0.4v14.1c-4.6,0.8-9.2,1.3-13.8,1.4
	C477.6,144.6,470.5,141.6,470.4,129.5L470.4,129.5z M517.1,88.3h-13.9v-7c0-3.9,3.2-7.1,7.1-7.1h7V65c0-13.4,11.5-20.8,24.2-20.8
	c4.7,0,9.4,1,13.7,2.8l-6.1,13.9c-1.8-1-3.8-1.6-5.9-1.7c-3.7,0-7,2.1-7,7.5v7.5h17.7v14.1h-17.7v54.9h-19.1V88.3z M574.2,45.6h5.3
	c3.9,0,7.1,3.2,7.1,7.1c0,0,0,0,0,0v1.4c0,3.9-3.2,7.1-7,7.1c0,0,0,0,0,0h-5.3c-3.9,0-7.1-3.2-7.1-7.1c0,0,0,0,0,0v-1.4
	C567.1,48.8,570.3,45.6,574.2,45.6L574.2,45.6z M574.6,74.2h11.5v68.9h-18.5V81.3C567.6,77.4,570.7,74.2,574.6,74.2L574.6,74.2z
	 M610.4,74.2h11v11.6c3.3-8.3,11.8-13,20.3-13c5,0,10.2,1.6,13.9,5l-8.4,13.8c-2.5-1.5-5.3-2.4-8.2-2.4c-8.7,0-17.7,7.3-17.7,24.8
	v29.1h-18V81.3C603.4,77.4,606.5,74.2,610.4,74.2L610.4,74.2z M658.1,123.5l10.6-4.2c2,5,6.1,11.3,16.2,11.3
	c8.6,0,12.3-4.6,12.3-8.2c0-11.6-38.1-3.8-38.1-28.2c0-14.6,13.5-21.5,28.2-21.5c10.8,0,19.5,3.9,25.5,10.6c1.6,1.8,1.4,4.4-0.3,6
	c-0.3,0.3-0.6,0.5-0.9,0.6l-9.8,4.9c-2.6-4.3-6.8-8.8-15-8.8c-6.1,0-9.8,2.7-9.8,5.9c0,10.4,38.6,4.2,38.6,29.5
	c0,15.9-15.3,23-29.6,23c-13.6,0-24.5-6.4-29.7-14.9c-1.2-2-0.6-4.6,1.4-5.9C657.7,123.7,657.9,123.6,658.1,123.5L658.1,123.5z
	 M735.8,124.1V88.3h-12.2v-7c0-3.9,3.2-7.1,7.1-7.1l0,0h5.5V60.9c0-2.4,1.2-4.6,3.2-5.9l15-9.9v29.1h19v14.1h-19v32.8
	c0,6.6,3.6,8.6,8.4,8.6c3.6-0.1,7.2-1,10.5-2.5v15.3c-4.5,1.4-9.1,2.1-13.8,2.1C744.7,144.6,735.8,136.7,735.8,124.1L735.8,124.1z
	 M81.4,92.1c10.2,0,18.5,8.3,18.5,18.5S91.6,129,81.4,129s-18.5-8.3-18.5-18.5l0,0C62.9,100.3,71.2,92.1,81.4,92.1z M144.3,95.5
	c-12.9-16.3-36.2-40.1-62.9-40.1s-50,23.8-62.9,40.1c-6.9,8.8-6.9,21.2,0,30c6.4,8.1,15.3,18,25.9,25.9v-40.9l0,0
	c0-20.5,16.5-37.1,37-37.1c20.5,0,37.1,16.5,37.1,37s-16.5,37.1-37,37.1c-6.5,0-13-1.7-18.6-5V162c5.9,2.4,12.2,3.6,18.5,3.7
	c26.7,0,50-23.8,62.9-40.1C151.3,116.8,151.3,104.3,144.3,95.5z M768.7,43.3c0-8.3,6.7-15,15-15s15,6.7,15,15s-6.7,15-15,15l0,0
	c-8.2,0.1-14.9-6.5-15-14.8C768.7,43.4,768.7,43.3,768.7,43.3z M795.7,43.3c0-6.6-5.4-12-12-12s-12,5.4-12,12s5.4,12,12,12
	c6.6,0.1,11.9-5.2,12-11.8C795.7,43.4,795.7,43.3,795.7,43.3L795.7,43.3z M777.9,50.1V35.8h7.2c2.9,0,5,1.9,5,4.4
	c0.2,2.1-1.3,3.9-3.3,4.3l4,5.6h-3.5l-3.7-5.3h-2.8v5.3H777.9z M780.7,42.4h3.6c1.8,0,2.6-0.7,2.6-2.1s-0.8-2-2.5-2h-3.7V42.4z"/>
</svg>
