<svg xmlns="http://www.w3.org/2000/svg" viewBox="0 0 768 200" xmlns:v="https://vecta.io/nano"><path d="M179.1 66.25h12.06v6.9c5.32-5.93 13.74-8.35 21.64-8.35 21 0 32.5 16.84 32.5 35.9 0 19.26-11.46 35.9-32.8 35.9-8.12 0-16-2.35-21.33-8.28v35.47H172V73.32a7.08 7.08 0 0 1 7.09-7.07zm47.5 34.44c0-11.46-5.7-20.36-18.44-20.36s-18.68 8.76-18.68 20.36 5.92 20.64 18.68 20.64 18.44-9.18 18.44-20.64zm29.28 7V73.32a7.08 7.08 0 0 1 7.12-7.07h11.22v39.27c0 9 5 15.53 14.5 15.53 10.4 0 17.08-5.1 17.08-17.12v-30.6a7.08 7.08 0 0 1 7.08-7.07h11.3v68.95h-18.42v-8.08c-6.07 6.84-14.88 9.46-22.4 9.46-19.9 0-27.5-14.5-27.5-28.92zm90.35-41.4h12.06v6.9c5.3-5.93 13.74-8.35 21.63-8.35 21 0 32.5 16.84 32.5 35.9 0 19.26-11.47 35.9-32.8 35.9-8.12 0-16-2.35-21.33-8.28v35.47h-19.14V73.32a7.08 7.08 0 0 1 7.08-7.07zm47.5 34.44c0-11.46-5.7-20.36-18.45-20.36s-18.67 8.76-18.67 20.36 5.92 20.64 18.67 20.64 18.45-9.2 18.45-20.67zm38.83-63h5.3a7.06 7.06 0 0 1 7.07 7.07v1.38a7.06 7.06 0 0 1-7.07 7.07h-5.3a7.07 7.07 0 0 1-7.07-7.07v-1.42a7.07 7.07 0 0 1 7.07-7.07zm.43 28.53h11.45v68.95H426V73.32a7.08 7.08 0 0 1 7-7.07zm28.12 55.22V44.75a7.07 7.07 0 0 1 7.08-7.07h11.45v79.16c0 3.24 2.35 4.63 6.07 4.63a41.67 41.67 0 0 0 5.09-.42v14.15a87 87 0 0 1-13.81 1.38c-8.7 0-15.85-2.97-15.85-15.1zm46.63-41.14h-13.9v-7a7.08 7.08 0 0 1 7.15-7.08h7V57c0-13.4 11.46-20.77 24.22-20.77a36.56 36.56 0 0 1 13.74 2.83l-6.07 13.87a13 13 0 0 0-5.93-1.73c-3.72 0-7 2.14-7 7.53v7.52h17.64v14.08h-17.7v54.87h-19.13zm57.1-42.65h5.3a7.07 7.07 0 0 1 7.07 7.07v1.38a7.07 7.07 0 0 1-7.07 7.07h-5.3a7.06 7.06 0 0 1-7.07-7.07v-1.38a7.06 7.06 0 0 1 7.1-7.07zm.46 28.57h11.44v68.95h-18.5V73.32a7.08 7.08 0 0 1 7.08-7.07zm35.8 0h11v11.6c3.26-8.35 11.84-13 20.34-13 5 0 10.25 1.6 13.9 5l-8.43 13.8a15.81 15.81 0 0 0-8.28-2.34C621 81.23 612 88.54 612 106.07v29.13h-17.95V73.32a7.08 7.08 0 0 1 7.07-7.07zm47.7 49.32l10.55-4.25c2 5 6.08 11.32 16.17 11.32 8.58 0 12.3-4.56 12.3-8.2 0-11.6-38.1-3.8-38.1-28.16 0-14.57 13.52-21.47 28.17-21.47 10.85 0 19.55 3.9 25.5 10.58a4.26 4.26 0 0 1-1.24 6.62l-9.8 4.86c-2.58-4.28-6.83-8.77-15-8.77-6.07 0-9.8 2.7-9.8 5.94 0 10.42 38.56 4.2 38.56 29.54 0 15.94-15.26 23-29.6 23-13.63 0-24.5-6.36-29.67-14.85a4.26 4.26 0 0 1 2.01-6.15zm77.7.58V80.33h-12.2v-7a7.08 7.08 0 0 1 7.08-7.07h5.45V52.94A7 7 0 0 1 730 47l15-9.92v29.17h19v14.08h-19v32.85c0 6.63 3.57 8.56 8.43 8.56a28.43 28.43 0 0 0 10.57-2.48v15.25a47 47 0 0 1-13.82 2.07c-14.8 0-23.68-7.87-23.68-20.43zM72.1 84.1a18.49 18.49 0 1 1-18.48 18.48A18.48 18.48 0 0 1 72.11 84.1zm62.9 3.47c-12.87-16.32-36.23-40.12-62.9-40.12s-50 23.8-62.9 40.12a24.22 24.22 0 0 0 0 30c6.37 8.07 15.3 18 25.93 25.9v-40.9a37.06 37.06 0 1 1 18.49 32V154a50.86 50.86 0 0 0 18.48 3.68c26.66 0 50-23.8 62.9-40.13a24.22 24.22 0 0 0-.02-29.98z" fill="#5afba6"/></svg>
